<svg width="69" height="47" viewBox="0 0 69 47" fill="none" xmlns="http://www.w3.org/2000/svg">
<path d="M45.6202 46.9034H0V0H45.6202V16.0478H43.5054V2.17434H2.11264V44.7291H43.5054V30.7508H45.6202V46.9034Z" fill="white"/>
<path d="M9.31946 18.635H11.4388V22.7877L14.4714 18.635H17.0142L13.5315 23.0338L17.2913 28.1665H14.6044L11.4388 23.631V28.1665H9.31946V18.635Z" fill="white"/>
<path d="M22.8179 26.2019C24.5271 26.2019 25.4139 24.9597 25.4139 23.4007C25.4139 21.7095 24.27 20.5995 22.8179 20.5995C21.3282 20.5995 20.2242 21.7095 20.2242 23.4007C20.2242 24.9848 21.3792 26.2019 22.8179 26.2019ZM22.8179 18.6189C25.5558 18.6189 27.5997 20.4537 27.5997 23.4007C27.5997 26.2019 25.5558 28.1825 22.8179 28.1825C20.0823 28.1825 18.0383 26.3454 18.0383 23.4007C18.0383 20.7181 19.9537 18.6189 22.8179 18.6189Z" fill="white"/>
<path d="M36.5111 28.166L32.1151 22.4474V28.166H30.1266V18.6366H31.8225L36.2207 24.3802L36.2163 18.6366H38.2026L38.207 28.166H36.5111Z" fill="white"/>
<path d="M40.7568 18.635H48.4382V20.6771H45.6561V28.1665H43.5368V20.6771H40.7568V18.635Z" fill="white"/>
<path d="M58.7173 24.0661C58.7173 26.9788 56.9172 28.164 54.9309 28.164C52.5478 28.164 50.8918 26.7623 50.8918 23.9704V18.6394H53.0111V23.5077C53.0111 24.9914 53.4479 26.1219 54.9309 26.1219C56.2145 26.1219 56.598 25.1555 56.598 23.6308V18.6394H58.7173V24.0661Z" fill="white"/>
<path d="M63.3842 20.7089V22.8194H64.1512C64.9604 22.8194 65.5944 22.5185 65.5944 21.7163C65.5944 21.1852 65.3328 20.7066 64.3131 20.7066C63.9938 20.7066 63.8209 20.6952 63.3842 20.7089ZM61.2649 28.164V18.6394C61.7814 18.6394 64.1512 18.6394 64.4172 18.6394C66.9467 18.6394 67.8467 19.9317 67.8467 21.6889C67.8467 23.4575 66.7871 24.18 66.2838 24.4399L68.964 28.164H66.3947L64.1645 24.8615H63.3842V28.164H61.2649Z" fill="white"/>
</svg>
