<svg width="160" height="82" viewBox="0 0 160 82" fill="none" xmlns="http://www.w3.org/2000/svg">
<g clip-path="url(#clip0)">
<path fill-rule="evenodd" clip-rule="evenodd" d="M71.6623 1.35059C71.7711 1.85053 72.3871 3.35923 72.9168 3.35923L73.1946 3.35846C73.7297 3.35846 75.6946 3.37062 75.6946 2.93934C75.6946 2.71501 75.0177 1.09284 74.7181 1.0719L71.6623 1.35059Z" fill="#00A0E3"/>
<path fill-rule="evenodd" clip-rule="evenodd" d="M91.1112 2.37882C91.1112 3.29487 91.2691 3.95888 92.0864 4.05642C92.7723 4.13733 94.0735 4.33072 94.4446 4.33942V2.93935C94.4446 2.15749 93.3444 2.47113 92.6629 2.35519C92.2095 2.27751 91.1112 1.53798 91.1112 2.37959V2.37882Z" fill="#00A0E3"/>
<path fill-rule="evenodd" clip-rule="evenodd" d="M76.528 1.25961C76.528 1.39788 77.2208 3.07925 77.6389 3.07925L80.0001 3.07871C80.8499 3.07871 80.1025 0.979845 79.4446 0.979845L76.9446 0.979614C76.7172 0.979614 76.528 1.06353 76.528 1.25961Z" fill="#00A0E3"/>
<path fill-rule="evenodd" clip-rule="evenodd" d="M81.5279 1.6798C81.5279 1.99298 81.6378 1.98698 81.8057 2.23957C81.8057 3.33839 81.9396 3.08533 83.0586 3.07687C83.8441 3.06955 84.2154 3.21944 85.139 3.21944C85.139 2.55652 84.9593 1.29526 84.3177 1.24776C83.4159 1.18094 82.3572 1.12012 81.5279 1.12012V1.6798Z" fill="#00A0E3"/>
<path fill-rule="evenodd" clip-rule="evenodd" d="M86.5278 3.0787L86.81 3.32205L89.8612 3.63924V3.0787C89.8612 2.29275 89.6338 1.99482 89.1668 1.67971C86.049 1.67971 86.5278 0.593906 86.5278 3.07924V3.0787Z" fill="#00A0E3"/>
<path fill-rule="evenodd" clip-rule="evenodd" d="M68.3335 1.67978H66.9445V2.23931C66.9445 2.3444 67.6669 3.56763 67.7778 3.77918C68.4092 3.77895 70.9725 3.82345 70.9725 3.21942C70.9725 2.87968 70.0625 1.39978 69.7225 1.39978C69.1372 1.39901 69.0586 1.67978 68.3335 1.67978Z" fill="#00A0E3"/>
<path fill-rule="evenodd" clip-rule="evenodd" d="M95.8333 3.35856V3.77898C95.8333 4.20618 95.967 4.34414 96.1114 4.61898C96.834 4.61813 99.0279 5.6763 99.0279 4.75909V3.9191C99.0279 3.60515 98.918 3.61192 98.7501 3.35933C97.4153 3.35856 97.5111 2.93945 96.528 2.93945H96.2499C95.93 2.93945 95.8336 3.03669 95.8336 3.35933L95.8333 3.35856Z" fill="#00A0E3"/>
<path fill-rule="evenodd" clip-rule="evenodd" d="M63.4723 2.37881L62.1094 2.38882L61.9332 2.80709L63.0557 4.61802L63.7428 4.56567L65.9521 4.32201L66.2593 3.91299L65.1388 1.95947C64.4439 2.01706 63.9417 2.37958 63.4723 2.37958V2.37881Z" fill="#00A0E3"/>
<path fill-rule="evenodd" clip-rule="evenodd" d="M57.0834 3.77898C57.3315 4.15237 58.3255 5.73874 58.7502 5.73874L58.8889 5.7382C59.4042 5.7382 61.3374 5.12116 61.667 4.89897C61.3967 4.49187 60.4957 2.93945 60.0002 2.93945H59.8614C59.4936 2.93945 57.3922 3.61493 57.0836 3.77921L57.0834 3.77898Z" fill="#00A0E3"/>
<path fill-rule="evenodd" clip-rule="evenodd" d="M100.417 5.17865C100.417 5.72802 101.272 5.65827 101.806 6.01895L102.639 6.0181C102.751 6.09686 102.982 6.29864 103.056 6.29864C103.571 6.29787 103.6 5.26772 103.611 4.759C103.317 4.61619 101.603 4.05912 101.25 4.05912L100.417 4.05835V5.17865Z" fill="#00A0E3"/>
<path fill-rule="evenodd" clip-rule="evenodd" d="M52.5002 5.17874C52.5002 5.41824 53.8429 6.99861 54.1668 6.99861L54.5834 6.99784C55.31 6.99784 56.1128 6.31752 56.9446 6.29873C56.9276 5.53826 55.9349 4.47555 55.4167 4.1991C54.8456 4.24637 52.5002 4.78873 52.5002 5.17874Z" fill="#00A0E3"/>
<path fill-rule="evenodd" clip-rule="evenodd" d="M105 6.43837C105 6.75255 105.11 6.74608 105.298 6.92477L107.778 7.55759C107.922 7.28267 108.055 7.14556 108.055 6.7186V6.43837C108.055 6.0171 105.893 5.31884 105.833 5.31884L105 5.31799V6.43837Z" fill="#00A0E3"/>
<path fill-rule="evenodd" clip-rule="evenodd" d="M47.7778 6.8584C47.9244 7.07865 49.6381 8.67804 49.7225 8.67804C50.7685 8.6775 51.1411 7.97816 52.2225 7.97816C52.3001 7.86545 52.5002 7.63272 52.5002 7.55828C52.5002 7.26765 50.9638 5.59876 50.6946 5.59876C50.2477 5.59799 47.9904 6.56616 47.7778 6.8584Z" fill="#00A0E3"/>
<path fill-rule="evenodd" clip-rule="evenodd" d="M109.305 7.4179V7.83724C109.305 8.1515 109.415 8.14549 109.583 8.39808C110.646 8.39777 111.431 9.09796 111.805 9.09796C112.159 9.09773 112.361 8.17998 112.361 7.69843C112.002 7.60097 110.056 6.71856 109.861 6.71856L109.444 6.71802C109.372 7.03227 109.305 7.04043 109.305 7.41844V7.4179Z" fill="#00A0E3"/>
<path fill-rule="evenodd" clip-rule="evenodd" d="M113.361 9.39073C113.707 9.94017 115.318 10.6376 116.264 10.6414L116.528 9.37772C116.029 9.26039 114.302 8.39807 114.167 8.39807L113.798 8.41901L113.361 9.39073Z" fill="#00A0E3"/>
<path fill-rule="evenodd" clip-rule="evenodd" d="M43.4723 8.67756C43.4723 9.06649 45.2424 10.6376 45.417 10.6376C45.8588 10.6374 48.1947 9.53549 48.1947 9.37798C48.1944 8.98774 46.4249 7.41846 46.2503 7.41846C45.8006 7.41792 43.4723 8.43228 43.4723 8.6781V8.67756Z" fill="#00A0E3"/>
<path fill-rule="evenodd" clip-rule="evenodd" d="M117.46 11.4645C117.835 11.6552 119.497 12.4569 119.861 12.4569C120.394 12.4564 120.543 11.895 120.556 11.3374C120.146 11.2269 118.708 10.3575 118.472 10.3575L117.788 10.3602L117.46 11.4645Z" fill="#00A0E3"/>
<path fill-rule="evenodd" clip-rule="evenodd" d="M39.1667 10.917C39.1667 11.3554 40.9861 12.6623 41.3905 12.8796L43.8891 11.6169C43.8681 10.6715 42.4217 9.7935 41.8057 9.37793C41.3919 9.59765 39.167 10.5325 39.167 10.9173L39.1667 10.917Z" fill="#00A0E3"/>
<path fill-rule="evenodd" clip-rule="evenodd" d="M121.389 13.1564L121.563 13.5029L123.868 14.4925L124.166 14.4159C124.239 14.1028 124.306 14.095 124.306 13.7169C124.306 13.2886 122.584 12.3171 122.083 12.3171C121.633 12.3171 121.573 12.8068 121.389 13.1569V13.1564Z" fill="#00A0E3"/>
<path fill-rule="evenodd" clip-rule="evenodd" d="M35.0002 13.7158C35.4346 13.8747 37.2345 15.3964 37.3614 15.3964C37.636 15.3955 39.8614 13.8852 39.8614 13.7168C39.8611 13.3565 37.7421 11.7573 37.6392 11.7573C37.2377 11.7565 35.0554 13.0504 35.0002 13.7168V13.7158Z" fill="#00A0E3"/>
<path fill-rule="evenodd" clip-rule="evenodd" d="M89.5691 15.2595L99.3136 15.8189L99.3874 15.9523L99.0002 5.90593L98.7445 5.6341L88.3334 4.05835L86.8708 4.07652L89.5691 15.2595Z" fill="#00A0E3"/>
<path fill-rule="evenodd" clip-rule="evenodd" d="M73.0558 4.19905C73.0558 5.17977 78.1502 14.102 78.6125 16.108L85.8334 15.3956L88.4654 15.3614L87.5892 12.1534L85.8334 5.8788C85.8334 4.50299 85.6432 3.77047 84.1701 3.77562C82.8606 3.78078 81.8542 3.63928 80.417 3.63928H79.1668C78.4218 3.63928 73.0558 3.83837 73.0558 4.19905Z" fill="#00A0E3"/>
<path fill-rule="evenodd" clip-rule="evenodd" d="M125.139 15.1158C125.139 15.5767 126.969 16.656 127.222 16.656L127.722 16.6231L128.195 15.8159C127.973 15.6663 126.022 14.2766 125.972 14.2766C125.653 14.2766 125.139 15.0748 125.139 15.1164L125.139 15.1158Z" fill="#00A0E3"/>
<path fill-rule="evenodd" clip-rule="evenodd" d="M90.5555 17.9148C91.2368 17.9148 92.5 18.0004 92.5 17.496V16.936C92.5 16.4643 92.2548 15.9562 91.8058 15.9562L89.8612 15.9553C89.8612 16.4947 90.1417 17.9156 90.5559 17.9156L90.5555 17.9148Z" fill="#00A0E3"/>
<path fill-rule="evenodd" clip-rule="evenodd" d="M31.1112 15.9553C31.1301 16.8018 31.6051 16.7874 32.1669 17.1318C32.4049 17.2774 33.4813 18.0558 33.6114 18.0558C34.045 18.0552 35.9546 16.77 35.9247 16.0243L33.889 14.4159H33.4724C33.1299 14.4159 31.7387 15.7875 31.1114 15.9561L31.1112 15.9553Z" fill="#00A0E3"/>
<path fill-rule="evenodd" clip-rule="evenodd" d="M86.3888 16.2362C86.3888 16.9382 86.5742 18.0558 87.2225 18.0558L88.6112 18.0553C88.9364 18.0553 89.1668 17.8236 89.1668 17.496C89.1668 17.1816 89.0569 17.1889 88.889 16.936V16.2362C88.616 16.0908 88.4795 15.9562 88.0556 15.9562L86.8056 15.9553C86.5782 15.9553 86.389 16.0401 86.3888 16.2362Z" fill="#00A0E3"/>
<path fill-rule="evenodd" clip-rule="evenodd" d="M93.4724 16.3754C93.4724 18.0967 94.0975 17.9219 95.6945 18.0558C95.8212 17.9694 96.1114 17.8279 96.1114 17.6359C96.1111 17.1168 95.8635 16.4512 95.6919 16.1242L93.7502 15.9553C93.5615 15.9371 93.4724 16.1584 93.4724 16.3762V16.3754Z" fill="#00A0E3"/>
<path fill-rule="evenodd" clip-rule="evenodd" d="M97.0836 17.635C97.0836 18.1543 99.4445 18.6326 99.4445 17.9155V16.936C99.4445 16.5047 99.0376 16.3762 98.6111 16.3762L97.0836 16.3754V17.635Z" fill="#00A0E3"/>
<path fill-rule="evenodd" clip-rule="evenodd" d="M100.417 15.5362C100.417 16.3746 101.662 16.2898 102.493 16.383C103.166 16.4582 104.228 16.8969 104.911 17.0256C106.31 17.2887 108.985 18.0557 110 18.0557C110.063 17.2967 110.651 14.8444 110.889 13.9127C111.087 13.1329 111.805 10.3768 111.805 9.79755C111.805 9.23833 107.551 8.10987 106.804 7.84042C106.354 7.67751 101.584 6.29862 101.389 6.29862L100.417 6.29785V15.5362Z" fill="#00A0E3"/>
<path fill-rule="evenodd" clip-rule="evenodd" d="M82.7873 16.4312C82.7776 16.9705 83.136 18.3358 83.6113 18.3358L84.1666 18.3352C84.9186 18.3352 85.2477 18.2174 85.7028 17.9127L85.1291 16.2625L84.7223 16.0968L82.7873 16.4312Z" fill="#00A0E3"/>
<path fill-rule="evenodd" clip-rule="evenodd" d="M100.556 17.2161L100.551 18.3594L102.361 18.615H102.916V17.4957C102.916 17.1816 102.807 17.1889 102.639 16.9361C101.825 16.9361 100.556 16.4922 100.556 17.2161Z" fill="#00A0E3"/>
<path fill-rule="evenodd" clip-rule="evenodd" d="M59.3058 6.57761C59.3058 6.7091 67.9406 18.6766 68.4725 19.0357C69.9418 18.2514 71.1477 18.1123 72.8204 17.5384C73.3323 17.3624 77.28 16.3844 77.6228 16.3847L71.6669 4.33948H70C68.4687 4.33948 66.0103 5.09309 64.5736 5.30904C63.8622 5.41497 59.3058 6.2612 59.3058 6.57846V6.57761Z" fill="#00A0E3"/>
<path fill-rule="evenodd" clip-rule="evenodd" d="M79.1668 17.216C79.1668 17.3189 79.9045 18.6215 80.0001 19.0357C80.7704 19.0177 81.3186 18.6158 81.5279 18.6158L82.3241 18.5724L81.5279 16.6555H81.111C80.4951 16.6555 79.167 16.6351 79.1668 17.216Z" fill="#00A0E3"/>
<path fill-rule="evenodd" clip-rule="evenodd" d="M128.75 17.3553C128.75 17.8471 130.417 18.8138 130.833 19.0356C131.133 18.8754 131.528 18.7915 131.528 18.3358V17.9148C131.059 17.7896 129.591 16.656 129.583 16.656C129.283 16.6555 128.75 17.2185 128.75 17.3559V17.3553Z" fill="#00A0E3"/>
<path fill-rule="evenodd" clip-rule="evenodd" d="M152.693 55.8602C152.346 55.1551 151.802 53.2347 151.278 52.3192C150.645 51.2114 150.099 50.0601 149.42 49.0134C148.061 46.9197 146.493 45.0683 145.023 43.0865C143.348 40.8288 142.038 39.6199 140.102 37.6881C138.944 36.532 135.244 33.6073 134.451 32.8922C131.713 31.044 129.171 28.8325 126.111 27.2937C124.607 26.537 123.084 25.6332 121.53 24.9123C119.867 24.1413 118.275 23.5332 116.527 22.8159C114.592 22.0218 107.888 19.8111 105.558 19.7329C104.326 19.6916 103.914 19.4083 102.5 19.3162C101.93 19.2785 100.076 19.1346 99.31 19.0311C98.187 18.8784 98.0323 18.6121 96.2501 18.6158C94.9972 18.618 94.1355 18.4757 92.7777 18.4757C86.364 18.4754 79.4077 19.6995 74.7027 21.3952C73.3814 21.8714 72.1365 22.4072 70.8763 22.8577C69.4819 23.3553 68.5156 23.9968 67.2651 24.5373C65.809 25.1663 61.3641 28.2735 60.417 28.2735C58.4996 29.5674 59.3955 27.9378 57.7225 30.4571C57.4606 30.8512 55.8336 33.3691 55.8336 33.592C55.8336 34.7015 59.2201 37.7352 59.3058 38.7707C57.7613 38.7702 55.0215 37.2311 53.6112 37.2311C53.3113 37.2308 51.6304 40.0249 51.3853 40.4467C50.7844 41.4792 49.6909 42.8331 50.6243 44.6935L54.5834 38.35C55.9463 38.35 60.1834 40.3106 61.1114 40.3106C61.2348 40.3095 61.3892 40.155 61.3892 40.0306C61.3892 39.5673 57.3614 35.073 57.3614 34.4318C57.3614 33.7349 59.0964 31.4387 59.4922 30.7008C60.2141 29.3531 61.2814 28.4767 62.5012 27.7146C64.8732 26.232 67.4394 24.694 70.1794 23.5552C74.9641 21.5664 82.7116 19.0357 89.3056 19.0357L97.3611 19.0352C97.7319 19.0352 99.3963 19.2513 99.9739 19.3418C100.653 19.4483 101.777 19.5075 102.584 19.6508C104.324 19.9613 106.013 20.1308 107.526 20.5496C110.976 21.5047 113.464 22.04 116.623 23.2793C122.879 25.7331 126.856 28.0698 131.998 31.5785C136.378 34.5674 141.128 38.8201 144.456 42.819C146.303 45.0379 147.873 47.1161 149.474 49.6582C150.248 50.8871 150.86 52.1807 151.524 53.4715C151.898 54.1972 153.001 57.5817 153.252 57.7911L152.693 55.8602Z" fill="#00A0E3"/>
<path fill-rule="evenodd" clip-rule="evenodd" d="M104.028 17.7755V18.615C104.028 19.1827 105.721 19.3155 106.389 19.3155V18.1957C106.389 17.8817 106.279 17.8882 106.111 17.636C105.157 17.6351 105.041 17.356 104.444 17.356C104.124 17.3554 104.028 17.4534 104.028 17.7761V17.7755Z" fill="#00A0E3"/>
<path fill-rule="evenodd" clip-rule="evenodd" d="M75.6946 17.6351L76.528 19.5946H77.3612C77.5716 19.5946 78.8892 19.2617 78.8892 19.0357C78.889 19.0037 78.0211 17.2761 77.9984 17.263C77.6331 17.0504 75.987 17.5672 75.6946 17.6359V17.6351Z" fill="#00A0E3"/>
<path fill-rule="evenodd" clip-rule="evenodd" d="M107.361 18.8947V19.3149C107.361 19.9069 109.722 20.5514 109.722 19.7355L109.729 18.5805L107.5 18.1957C107.427 18.5088 107.361 18.5178 107.361 18.8956V18.8947Z" fill="#00A0E3"/>
<path fill-rule="evenodd" clip-rule="evenodd" d="M72.2221 18.6149C72.2221 18.8482 73.1768 20.5752 73.6112 20.5752C73.9836 20.5744 75.1473 20.1114 75.5558 20.0152C75.5265 19.6622 74.6946 18.0557 74.3059 18.0557L74.1665 18.0552C73.8173 18.0552 72.2224 18.3664 72.2224 18.6157L72.2221 18.6149Z" fill="#00A0E3"/>
<path fill-rule="evenodd" clip-rule="evenodd" d="M27.3613 19.3149C27.5886 19.5564 29.7074 20.9949 30.0003 20.9949L30.2778 20.9947C30.5432 20.9947 32.3612 19.4915 32.3612 19.0357C32.3612 18.816 30.107 17.356 29.7225 17.356C29.3994 17.3554 27.5612 19.0148 27.3613 19.3155V19.3149Z" fill="#00A0E3"/>
<path fill-rule="evenodd" clip-rule="evenodd" d="M110.694 20.015V20.1551C110.694 20.7532 112.233 20.9949 112.917 20.9949C112.989 20.6807 113.055 20.6733 113.055 20.2953V20.015C113.055 19.4511 111.862 19.1755 111.25 19.1755C110.823 19.1755 110.694 19.5856 110.694 20.015Z" fill="#00A0E3"/>
<path fill-rule="evenodd" clip-rule="evenodd" d="M132.083 19.735C132.275 20.1008 133.582 21.2752 134.028 21.2752L134.166 21.2743C134.455 21.2743 134.861 20.8654 134.861 20.7152C134.861 20.2836 132.981 19.0356 132.917 19.0356C132.533 19.0351 132.245 19.4911 132.083 19.735Z" fill="#00A0E3"/>
<path fill-rule="evenodd" clip-rule="evenodd" d="M69.0279 19.8746V20.015C69.0279 20.3836 69.8157 20.8966 70.0003 21.6948H70.5556C70.8944 21.6948 72.0842 21.1429 72.3612 20.9949C72.2678 20.5897 71.3349 19.0357 70.9725 19.0357L70.8332 19.0352C70.4872 19.0352 69.0279 19.4225 69.0279 19.8755V19.8746Z" fill="#00A0E3"/>
<path fill-rule="evenodd" clip-rule="evenodd" d="M113.055 10.3572L111.111 18.3352C111.468 18.8724 114.58 19.7255 115.417 20.0153C116.151 20.2695 119.257 21.6947 119.722 21.6947C120.207 21.6947 121.346 19.1225 121.62 18.5685C121.865 18.0723 123.472 15.4303 123.472 15.2565C123.472 14.622 114.342 10.2177 113.611 10.2177C113.576 10.2169 113.1 10.3401 113.055 10.3572Z" fill="#00A0E3"/>
<path fill-rule="evenodd" clip-rule="evenodd" d="M114.028 20.9947V21.2744C114.028 21.7684 115.546 22.1022 116.111 22.1147C116.227 21.8714 116.389 21.4941 116.389 21.1351C116.389 20.6937 114.819 20.1983 114.305 20.1552C114.161 20.4301 114.028 20.568 114.028 20.9947Z" fill="#00A0E3"/>
<path fill-rule="evenodd" clip-rule="evenodd" d="M65.6944 21.1351C65.6944 21.4018 67.0457 23.0946 67.2226 23.0946C67.773 23.0935 68.7489 22.4778 69.2653 22.182L67.6391 20.1552C67.2522 20.2451 65.6947 20.8162 65.6944 21.1351Z" fill="#00A0E3"/>
<path fill-rule="evenodd" clip-rule="evenodd" d="M117.083 22.534L119.028 23.3743C119.364 23.1472 119.583 22.9645 119.583 22.3947C119.583 21.9805 118.228 21.5552 117.778 21.5552C117.25 21.5544 117.185 22.0956 117.083 22.5345L117.083 22.534Z" fill="#00A0E3"/>
<path fill-rule="evenodd" clip-rule="evenodd" d="M46.3891 11.3373C46.5586 12.0694 51.6304 16.6357 52.5369 17.4589C53.3199 18.1696 58.325 23.5145 58.7502 23.5145L58.8889 23.514C58.8924 23.514 62.4432 21.5992 62.872 21.3697C63.5847 20.9876 66.8367 19.5781 67.0835 19.3155C66.4457 18.1006 58.0525 6.99857 57.6389 6.99857L57.5002 6.9978C56.0955 6.9978 47.7218 10.627 46.3891 11.3373Z" fill="#00A0E3"/>
<path fill-rule="evenodd" clip-rule="evenodd" d="M135.417 22.3039C135.65 22.4617 137.012 23.7944 137.084 23.7944C137.736 23.7936 137.8 23.4791 138.026 23.1247L137.639 22.6744L136.241 21.5299L135.417 22.3039Z" fill="#00A0E3"/>
<path fill-rule="evenodd" clip-rule="evenodd" d="M62.6392 22.6745C62.6392 23.0199 63.9762 24.6343 64.3057 24.6343L64.4448 24.634C64.6431 24.634 65.9725 23.8697 65.9725 23.5145V23.3743C65.9725 23.0867 64.7282 21.6948 64.4448 21.6948C64.0044 21.6948 62.6392 22.2858 62.6392 22.6745Z" fill="#00A0E3"/>
<path fill-rule="evenodd" clip-rule="evenodd" d="M120.277 24.0744C120.726 24.1795 121.861 24.774 122.083 24.774C122.252 24.7732 122.677 24.1455 122.677 23.9345L122.62 23.6287C122.237 23.5388 121.388 22.9546 121.25 22.9546L120.871 22.8009C120.525 22.8585 120.278 23.5201 120.277 24.0744Z" fill="#00A0E3"/>
<path fill-rule="evenodd" clip-rule="evenodd" d="M123.117 25.2885L125 26.3137C125.283 26.1228 125.695 25.7978 125.695 25.3342C125.694 25.1079 124.148 24.3664 123.644 24.3732L123.117 25.2885Z" fill="#00A0E3"/>
<path fill-rule="evenodd" clip-rule="evenodd" d="M59.5836 24.3542C59.5836 25.1461 60.9171 25.5804 61.1114 26.314L61.6667 26.3137C61.8817 26.3137 63.0576 25.4001 63.1947 25.194C63.0598 24.9371 61.6861 23.2347 61.5279 23.2347C61.1151 23.2342 59.5836 24.0927 59.5836 24.3542Z" fill="#00A0E3"/>
<path fill-rule="evenodd" clip-rule="evenodd" d="M138.333 24.6339C138.333 25.1502 139.882 26.314 140.139 26.314C140.419 26.1222 140.472 26.0777 140.89 25.8036C140.341 25.1866 139.258 24.1127 139.167 24.0745C138.957 24.0745 138.333 24.4645 138.333 24.6339Z" fill="#00A0E3"/>
<path fill-rule="evenodd" clip-rule="evenodd" d="M120.972 22.1139C121.388 22.7409 123.994 23.9441 124.903 24.3116C125.533 24.5653 128.889 26.4539 128.889 26.4539C129.392 26.453 133.35 22.2961 133.75 21.6948C133.353 21.0976 125.527 15.8163 125 15.8163C124.253 15.816 121.558 21.2336 120.972 22.1146V22.1139Z" fill="#00A0E3"/>
<path fill-rule="evenodd" clip-rule="evenodd" d="M20.9723 26.3137C20.9723 26.6321 22.059 27.0038 22.5004 27.0136L22.5001 24.7733C21.8747 24.826 20.9723 25.6687 20.9723 26.3137Z" fill="#00A0E3"/>
<path fill-rule="evenodd" clip-rule="evenodd" d="M126.111 26.5938C126.225 27.0242 127.448 27.6562 128.156 27.7899L128.605 26.8863C128.173 26.6511 126.958 25.8942 126.944 25.8942C126.644 25.8936 126.111 26.4561 126.111 26.5938Z" fill="#00A0E3"/>
<path fill-rule="evenodd" clip-rule="evenodd" d="M56.8056 26.0329V26.733C57.5035 26.9875 58.2737 28.2735 58.7502 28.2735C59.1746 28.2735 59.7816 27.4644 60.417 27.2936C60.4 26.5358 58.6841 25.0541 58.4723 25.0541C58.0477 25.0532 57.4409 25.8628 56.8058 26.0336L56.8056 26.0329Z" fill="#00A0E3"/>
<path fill-rule="evenodd" clip-rule="evenodd" d="M141.07 27.2219C141.508 27.7572 142.46 28.5896 142.96 29.0114C143.114 29.0108 143.609 28.695 143.746 28.5684L141.933 26.7137L141.07 27.2219Z" fill="#00A0E3"/>
<path fill-rule="evenodd" clip-rule="evenodd" d="M54.028 28.4129C54.028 28.8442 54.9504 29.3585 55.2781 29.5329C55.6399 29.4481 56.7805 28.9731 56.8058 28.9731L57.1965 28.9633L57.4007 28.5098L55.9724 27.0128C55.5098 27.0522 54.028 28.2314 54.028 28.4134V28.4129Z" fill="#00A0E3"/>
<path fill-rule="evenodd" clip-rule="evenodd" d="M128.889 28.3997C129.408 28.7178 130.264 29.4755 130.713 29.5521C130.89 29.5521 131.243 29.0178 131.364 28.8772C130.74 28.1953 130.368 27.8476 129.64 27.4443C129.346 27.5212 129.078 28.007 128.889 28.3997Z" fill="#00A0E3"/>
<path fill-rule="evenodd" clip-rule="evenodd" d="M34.8611 18.7554C35.3173 19.4412 40.6605 22.8415 41.8439 23.7559C42.4982 24.2613 48.642 28.8333 48.7503 28.8333C49.4751 28.833 49.0281 27.8881 49.0281 27.1535V25.6138C50.1544 25.7075 52.2364 30.2327 53.1946 30.2327C53.5659 30.232 53.6055 30.031 53.7502 29.8129C53.5082 29.4481 52.639 28.8604 52.639 28.4134C52.639 27.6825 57.1515 24.9479 57.6389 24.2144C56.9518 23.1796 45.2846 12.1772 45 12.1772C43.9217 12.1767 35.4299 17.8999 34.8611 18.7554Z" fill="#00A0E3"/>
<path fill-rule="evenodd" clip-rule="evenodd" d="M18.3333 30.3723C18.9226 30.531 19.4752 31.0725 20.1392 31.0725L20.9723 31.0722C21.5831 31.0722 22.6391 30.5567 22.6391 29.953L22.6388 29.2531C22.6388 28.6108 20.6032 27.7135 20.0001 27.7135C19.5212 27.7127 18.3335 29.525 18.3335 30.3729L18.3333 30.3723Z" fill="#00A0E3"/>
<path fill-rule="evenodd" clip-rule="evenodd" d="M131.528 30.0926C131.741 30.4986 132.694 31.2566 133.213 31.4484C133.444 31.2946 133.723 30.865 133.87 30.5646C133.392 30.2963 132.466 29.3929 132.367 29.3929C131.907 29.3924 131.717 29.808 131.528 30.0928V30.0926Z" fill="#00A0E3"/>
<path fill-rule="evenodd" clip-rule="evenodd" d="M144.333 29.4076L143.672 29.8218C143.904 30.322 144.959 31.6539 145.235 31.6539C145.659 31.6533 145.81 31.4269 146.026 31.2345L144.333 29.4076Z" fill="#00A0E3"/>
<path fill-rule="evenodd" clip-rule="evenodd" d="M16.9162 32.3248C17.3266 32.3238 17.917 32.2346 17.917 31.9126C17.917 31.7159 17.7275 31.6328 17.5002 31.6328L17.0882 31.633L16.9162 32.3248Z" fill="#00A0E3"/>
<path fill-rule="evenodd" clip-rule="evenodd" d="M135.555 31.4924C135.686 31.5807 135.878 31.761 136.085 31.9321L136.085 31.9323L136.106 31.95V31.9503L136.128 31.9677L136.149 31.9853L136.171 32.0024L136.192 32.0195L136.214 32.0367L136.236 32.0532L136.257 32.0698L136.301 32.1021L136.323 32.1176V32.1179L136.344 32.1328V32.133L136.366 32.1477V32.148L136.387 32.1624L136.409 32.1765L136.43 32.1901C136.501 32.2349 136.571 32.2718 136.637 32.2968V32.2971L136.657 32.3042L136.676 32.3104L136.695 32.3161L136.715 32.321L136.733 32.325L136.752 32.328V32.3284L136.77 32.3305L136.788 32.3318L136.806 32.3324C136.827 32.3321 137.13 32.1645 137.529 31.9383V31.938L137.584 31.9068L137.64 31.8751L137.697 31.8424L137.755 31.8095L137.814 31.7759L137.873 31.7423V31.742L137.933 31.7078L137.993 31.6733V31.673L138.054 31.6385V31.6382L138.115 31.6035L138.176 31.5681L138.236 31.5331L138.297 31.4981V31.4978L138.358 31.463V31.4628L138.418 31.428L138.478 31.3932C138.936 31.1274 139.349 30.8837 139.502 30.787L139.52 30.7751L139.535 30.7651L139.548 30.7569L139.569 30.7425L139.592 30.7267L139.619 30.7102L139.647 30.6926L139.678 30.6738L139.711 30.6542L139.747 30.6336C139.856 30.5706 139.992 30.4954 140.144 30.4126L140.195 30.3848H140.195L140.248 30.3566L140.301 30.3275L140.355 30.2982L140.41 30.2686L140.466 30.2384H140.466L140.523 30.208L140.58 30.1771L140.637 30.1461H140.637L140.695 30.1149L140.753 30.0834H140.753L140.811 30.0519L140.811 30.0516C141.432 29.7135 142.064 29.3539 142.197 29.1725C142.201 29.1668 142.204 29.1616 142.208 29.1562C142.211 29.1508 142.214 29.1456 142.216 29.1407C142.218 29.1358 142.219 29.1309 142.22 29.1263C142.222 29.1217 142.222 29.1174 142.222 29.1133C142.222 29.098 142.221 29.0823 142.218 29.0655C142.215 29.0489 142.21 29.0312 142.205 29.013C142.199 28.9949 142.192 28.9759 142.183 28.956C142.174 28.9362 142.165 28.9155 142.153 28.8946V28.8943C142.142 28.8732 142.13 28.8514 142.116 28.8289V28.8287C141.303 27.4946 136.068 23.7621 135.278 22.6744L134.768 22.433L129.999 27.0139L135.555 31.4924ZM142.216 29.1407C142.218 29.1358 142.219 29.1309 142.22 29.1263L142.216 29.1407ZM142.218 29.0655C142.215 29.0489 142.21 29.0312 142.205 29.013L142.218 29.0655Z" fill="#00A0E3"/>
<path fill-rule="evenodd" clip-rule="evenodd" d="M135.48 33.1721C135.749 32.9795 136.041 32.667 136.25 32.6316C136.06 32.3158 135.018 31.3908 134.785 31.2566C134.536 31.4095 133.996 31.7647 133.901 31.9508C134.352 32.3207 134.714 32.8046 135.48 33.1721Z" fill="#00A0E3"/>
<path fill-rule="evenodd" clip-rule="evenodd" d="M145.928 32.5505C146.203 33.1276 147.235 34.1637 147.531 34.5269C147.812 34.3916 148.357 34.1665 148.332 33.9687C148.302 33.7241 146.887 32.1475 146.742 32.1475C146.523 32.1469 146.096 32.4848 145.928 32.5505Z" fill="#00A0E3"/>
<path fill-rule="evenodd" clip-rule="evenodd" d="M136.388 33.8712C136.55 34.1137 137.475 34.9918 137.778 34.9918L138.056 34.9915C138.427 34.9915 138.466 34.7898 138.611 34.572C138.457 34.3389 137.41 33.312 137.222 33.312C136.793 33.3118 136.56 33.6138 136.389 33.8718L136.388 33.8712Z" fill="#00A0E3"/>
<path fill-rule="evenodd" clip-rule="evenodd" d="M50.1388 31.9117C50.1388 32.8894 46.9288 32.9897 46.3489 33.8585L50.3864 35.2724L50.5559 39.4703C51.6867 39.3753 52.2063 36.1113 53.3336 36.1113L53.4721 36.1108C54.2668 36.1108 55.5141 36.9513 56.6668 36.9513C56.5911 36.0361 54.5837 34.3628 54.5837 33.8718C54.5834 33.126 56.4393 31.3064 56.528 30.2327C55.5111 30.255 53.6287 31.3525 52.9168 31.3525L52.7778 31.352C52.2012 31.352 51.0169 28.7896 50.1391 28.553L50.1388 31.9117Z" fill="#009846"/>
<path fill-rule="evenodd" clip-rule="evenodd" d="M138.706 35.7723C138.937 36.1127 139.697 37.0279 140.095 37.0279L140.884 36.5306L139.419 35.236L138.706 35.7723Z" fill="#00A0E3"/>
<path fill-rule="evenodd" clip-rule="evenodd" d="M149.59 37.0366L150.199 36.7591C150.316 36.702 149.123 34.7854 148.938 34.7854C148.698 34.8066 148.579 35.0465 148.244 35.2211C148.488 35.73 149.343 36.8587 149.59 37.0366Z" fill="#00A0E3"/>
<path fill-rule="evenodd" clip-rule="evenodd" d="M23.6555 28.4068L23.6032 31.1884L17.9065 33.1409L17.8704 33.3258L23.6113 34.9915C24.5274 36.3703 23.666 40.0862 24.3057 41.43C25.2223 41.1831 27.1486 36.5313 27.9168 36.5313C29.2985 36.5308 31.6749 37.8999 33.0558 37.9309C32.9749 36.954 29.8615 33.8888 29.8615 33.4521C29.8612 32.5358 32.6845 29.2647 32.778 28.1333C31.5827 28.233 28.1262 29.953 27.3613 29.953C26.4882 29.9521 24.5888 25.7191 23.2893 25.6198L23.6555 28.4068Z" fill="#AE4A84"/>
<path fill-rule="evenodd" clip-rule="evenodd" d="M148.534 36.1818C147.739 35.4157 143.725 30.0928 143.195 30.0928C142.711 30.0925 140.788 31.1659 140.231 31.4453C138.749 32.1881 137.865 32.709 137.522 33.0719C137.72 33.2927 139.132 34.3432 140.657 35.8687C140.933 36.1438 143.447 38.6307 143.472 38.6307C143.94 38.6307 148.971 37.2836 149.124 37.0708L148.534 36.1818Z" fill="#00A0E3"/>
<path fill-rule="evenodd" clip-rule="evenodd" d="M137.778 22.534C139.022 23.3743 145.449 29.9191 146.092 30.7762C146.687 31.3954 149.51 34.8552 150.315 36.2634C151.239 37.4842 154.065 42.2033 154.934 43.8763C155.567 45.0944 156.376 46.7853 156.889 48.0642C157.268 49.0085 158.147 51.6179 158.425 52.324C158.619 53.0519 158.945 54.101 159.086 55.0318L159.583 59.485V59.9052H160V57.6659C160 56.2729 158.748 52.0236 158.362 50.7787C157.747 48.7923 156.698 46.5368 155.833 44.7891C154.011 41.1037 151.616 37.4361 149.252 34.2056C145.113 28.547 137.826 21.2208 132.026 17.2738C130.33 16.1191 128.787 14.8754 126.992 13.8089C125.218 12.7544 123.355 11.7794 121.611 10.6938C120.335 9.89999 117.344 8.48415 115.865 7.9464C115.035 7.64438 113.766 7.07215 112.835 6.66074C111.8 6.20306 110.544 5.98095 109.628 5.55399C107.917 4.75549 105.17 4.06678 103.109 3.585C100.728 3.02824 98.5657 2.43537 96.1665 1.90386C94.549 1.54534 90.5183 0.688176 88.8908 0.697954C87.4012 0.707192 86.5026 0.274301 85.0002 0.279997C83.3164 0.286002 82.4264 0.000307943 80.9721 0.000307943L74.861 0C74.4278 0 73.3516 0.281075 72.2223 0.279997C71.1881 0.278689 70.4537 0.33458 69.5248 0.500793C67.7543 0.818051 65.9395 0.796572 64.2482 1.20206C61.9762 1.74635 55.7963 2.44699 54.4444 3.35928C52.2158 3.35851 42.1022 7.61806 40.0921 8.6308C35.9617 10.712 31.3288 13.3347 28.0199 16.2003C24.3861 19.3461 20.9681 22.012 18.1974 26.037C16.7512 28.1369 15.6583 29.6736 14.2494 31.9956C13.6441 32.9926 11.1358 37.6575 11.111 38.7707C11.758 38.5963 12.7043 35.6509 13.1007 34.897C13.7899 33.5855 14.4105 32.3294 15.1668 31.1007C16.8374 28.3854 18.2962 26.7279 20.0835 24.2985C22.9717 20.3714 28.4389 16.1658 32.5834 13.3812C34.9575 11.7848 37.3963 10.4059 40 9.09772C42.7295 7.72614 45.2976 6.85898 48.2368 5.64121C50.1507 4.84841 55.0989 3.25773 57.2222 2.9394C58.7069 2.71614 60.4626 2.16322 62.0519 1.92773C63.6306 1.69392 65.4898 1.51708 67.2124 1.2501C81.8389 -1.01929 96.6699 1.88377 108.138 5.37607C113.289 6.94428 120.167 10.0257 124.305 12.5971C126.784 14.137 128.965 15.6473 131.361 17.2445C132.496 18.0009 137.199 21.663 137.778 22.5345L137.778 22.534Z" fill="#00A0E3"/>
<path fill-rule="evenodd" clip-rule="evenodd" d="M140.89 37.7661C140.991 38.1457 141.809 39.1085 142.222 39.1085L142.361 39.0499C142.715 38.8583 142.992 38.6709 142.922 38.565C142.63 38.1256 142.022 37.2753 141.73 37.2753C141.326 37.3318 141.2 37.5352 140.89 37.7661Z" fill="#00A0E3"/>
<path fill-rule="evenodd" clip-rule="evenodd" d="M6.11108 34.8511V34.9915C6.11108 35.3147 9.19469 39.4706 9.72225 39.4706C9.84545 39.4703 10 39.315 10 39.1906C9.99982 38.7731 6.69554 34.5516 6.2501 34.4318C6.15477 34.6026 6.11108 34.5814 6.11108 34.8516V34.8511Z" fill="#00A0E3"/>
<path fill-rule="evenodd" clip-rule="evenodd" d="M150.278 37.9308C150.427 38.3763 151.103 39.6278 151.417 39.8358L152.031 39.5221C151.894 39.1267 151.084 37.6913 150.939 37.6345C150.904 37.6338 150.322 37.9134 150.278 37.9308Z" fill="#00A0E3"/>
<path fill-rule="evenodd" clip-rule="evenodd" d="M45.5556 38.6308V38.9106C45.5556 39.3611 47.624 40.4999 48.0559 40.7302C48.4401 40.5249 49.1669 39.7099 49.1669 39.1906V38.6308C48.5083 38.4529 47.2537 37.2311 46.6669 37.2311C46.2185 37.2308 45.5556 38.3411 45.5556 38.6308Z" fill="#00A0E3"/>
<path fill-rule="evenodd" clip-rule="evenodd" d="M143.195 39.6096C142.967 39.6096 142.778 39.6944 142.778 39.8905C142.778 40.0216 143.819 41.1493 144.028 41.29L144.835 40.8258C144.637 40.5328 144.095 39.6105 143.611 39.6105L143.195 39.6096Z" fill="#00A0E3"/>
<path fill-rule="evenodd" clip-rule="evenodd" d="M14.4446 33.7319C14.5146 34.5803 16.556 34.8084 17.3347 35.0187C18.2972 35.2772 19.5431 35.7337 20.5557 35.9717C20.5309 37.0892 19.0279 39.2655 19.0279 39.8904C19.0277 40.5572 21.8311 41.2019 22.524 41.4217C23.4286 41.7073 23.2798 41.008 23.1958 39.8896C23.1346 39.0762 23.056 38.4032 23.056 37.3709L23.0557 35.9714C21.8927 35.658 15.9157 33.592 15.278 33.592L15.139 33.5914C14.9199 33.5914 14.6127 33.6661 14.4446 33.7319Z" fill="#00A0E3"/>
<path fill-rule="evenodd" clip-rule="evenodd" d="M153.78 42.436C153.639 41.8766 152.917 40.6617 152.711 40.5121C152.49 40.6118 152.154 40.7519 152.013 40.9249C152.133 41.3785 152.81 42.2326 153.113 42.6584C153.24 42.8371 153.639 42.5173 153.78 42.436Z" fill="#00A0E3"/>
<path fill-rule="evenodd" clip-rule="evenodd" d="M146.389 42.8298C146.389 42.7629 145.662 41.7103 145.278 41.7103L145.139 41.7095C144.704 41.7095 144.745 41.9612 144.583 42.27L145.569 43.3781C146.015 43.1671 146.389 43.3903 146.389 42.8298Z" fill="#00A0E3"/>
<path fill-rule="evenodd" clip-rule="evenodd" d="M43.8891 42.2693C44.5978 42.4357 46.2681 43.6696 46.6669 43.6696C46.945 43.669 47.639 42.273 47.639 41.99C47.639 41.4276 45.2857 40.1704 45 40.1704C44.4013 40.1702 43.8891 41.5558 43.8891 42.27V42.2693Z" fill="#00A0E3"/>
<path fill-rule="evenodd" clip-rule="evenodd" d="M148.505 45.1835L151.942 45.1543L154.242 45.1286C153.46 43.5023 150.325 39.3616 149.82 38.071C148.223 38.3549 146.059 38.8418 144.127 39.5004L148.505 45.1835Z" fill="#00A0E3"/>
<path fill-rule="evenodd" clip-rule="evenodd" d="M154.143 43.064C153.948 43.064 153.611 43.2055 153.505 43.3635C153.505 43.3711 154.128 44.6098 154.259 44.8022L155.07 44.7734C154.869 44.0127 154.386 43.4703 154.143 43.064Z" fill="#00A0E3"/>
<path fill-rule="evenodd" clip-rule="evenodd" d="M7.62939e-05 43.1096C0.0774491 44.0461 2.30278 44.2559 3.07368 44.4914C3.65142 44.668 4.283 44.9645 4.72898 45.0626C5.64318 45.2641 6.08671 45.7671 6.11123 44.6493C5.4368 44.467 1.14555 42.9697 0.833457 42.9697C0.353868 42.9692 0.536263 43.0533 7.62939e-05 43.1096H7.62939e-05Z" fill="#00A0E3"/>
<path fill-rule="evenodd" clip-rule="evenodd" d="M147.222 45.4882L148.191 45.1965L147.152 43.8652C146.84 43.8177 146.25 43.9073 146.25 44.2294C146.25 44.3046 147.112 45.3241 147.222 45.4892V45.4882Z" fill="#00A0E3"/>
<path fill-rule="evenodd" clip-rule="evenodd" d="M6.8056 41.0096C6.8056 42.0944 3.91279 41.6919 3.6059 42.8494L6.77757 43.6975L7.0834 43.949C7.0834 44.8105 6.72021 48.2706 7.70582 47.3912C7.92762 47.1931 9.16895 45.0642 9.44651 44.6432L12.639 45.6288C12.5525 44.5824 10.8336 43.345 10.8336 42.6899L10.8333 42.5498C10.8333 41.9491 12.3358 40.7636 12.3444 39.5566L9.06148 40.5621L6.8056 37.9309V41.0096Z" fill="#393185"/>
<path fill-rule="evenodd" clip-rule="evenodd" d="M147.765 46.1988L148.813 47.5378L149.56 47.3314C149.343 46.7852 148.973 46.0063 148.599 45.8778C148.312 45.999 148.028 46.0459 147.765 46.1988Z" fill="#00A0E3"/>
<path fill-rule="evenodd" clip-rule="evenodd" d="M155.115 46.143L155.742 47.9496C156.045 47.9268 156.409 47.8616 156.4 47.7217C156.384 47.4667 155.977 46.6911 155.826 46.124L155.115 46.143Z" fill="#00A0E3"/>
<path fill-rule="evenodd" clip-rule="evenodd" d="M150.183 47.9767C149.89 47.9767 149.718 48.1271 149.445 48.2882C149.616 48.6752 150.055 49.5025 150.289 49.7309C150.586 49.6731 150.721 49.5774 150.972 49.4082C150.763 49.0104 150.293 48.2113 150.183 47.9767Z" fill="#00A0E3"/>
<path fill-rule="evenodd" clip-rule="evenodd" d="M156.805 48.7075C156.416 48.7162 156.054 48.7847 156.049 48.8762C156.037 49.0693 156.34 49.9976 156.568 50.4308L157.252 50.2733L156.805 48.7075Z" fill="#00A0E3"/>
<path fill-rule="evenodd" clip-rule="evenodd" d="M150.708 50.568C150.708 50.6267 151.174 51.5036 151.25 51.6475L151.528 51.6469H151.944L151.504 50.3974C151.273 50.3915 150.822 50.4745 150.708 50.568Z" fill="#00A0E3"/>
<path fill-rule="evenodd" clip-rule="evenodd" d="M149.305 45.9082C149.352 46.2752 151.492 49.7632 151.898 50.5747C152.752 52.279 151.91 51.8278 153.99 52.195C154.935 52.3615 155.96 52.5848 156.888 52.7417L154.728 46.0468L149.723 45.8376L149.305 45.9082Z" fill="#00A0E3"/>
<path fill-rule="evenodd" clip-rule="evenodd" d="M157.532 51.0494L156.805 51.2277C156.869 51.7246 157.32 52.9289 157.425 52.9574L158.18 52.8648L157.532 51.0494Z" fill="#00A0E3"/>
<path fill-rule="evenodd" clip-rule="evenodd" d="M47.7779 45.0691H47.3613C46.8773 46.0854 46.2546 46.9115 45.6904 47.864C45.3137 48.5004 45.2429 48.6693 45.0329 49.4411C44.7204 50.5891 44.0281 49.8091 44.0281 50.6679C44.0279 51.1537 44.2087 50.8949 44.4191 51.2537C44.5752 51.5196 44.5406 51.8058 44.6735 52.1168C44.8532 52.5386 45.2932 53.1421 45.8335 53.1874C45.8335 51.4568 47.2123 46.2578 47.7779 45.0691Z" fill="#00A0E3"/>
<path fill-rule="evenodd" clip-rule="evenodd" d="M10.2132 52.4791L14.3053 53.3268C14.5912 52.7822 14.7222 52.2048 14.7222 51.3678L14.7219 50.3874C14.7219 49.7782 11.426 49.4083 10.5705 49.3936L10.2132 52.4791Z" fill="#00A0E3"/>
<path fill-rule="evenodd" clip-rule="evenodd" d="M36.6675 46.7489L36.667 48.568C36.667 49.3804 33.0558 49.6929 33.0558 50.2481C33.0555 50.7883 34.3578 50.8336 34.9409 51.0077C35.6205 51.2103 36.276 51.4906 36.9343 51.6481L37.2224 55.8458C38.1854 55.5872 39.2589 52.6275 39.7226 52.6275C40.8185 52.6266 42.3543 53.5853 43.3335 53.6074C43.2526 52.6296 41.2501 51.1188 41.2501 50.3882V50.1074C41.2501 49.4227 43.0298 47.9246 43.0557 46.7489C42.4745 46.7975 39.6555 48.0088 39.5836 48.0088C38.7224 48.0086 37.6551 45.3353 36.5612 45.0762L36.6675 46.7489Z" fill="#FEFEFE"/>
<path fill-rule="evenodd" clip-rule="evenodd" d="M16.1111 53.6062C16.4207 53.5236 16.5279 53.5744 16.5279 53.1874L16.56 52.764L16.3892 50.9479H16.1111V53.6062Z" fill="#00A0E3"/>
<path fill-rule="evenodd" clip-rule="evenodd" d="M152.919 53.7518C152.754 53.4046 152.605 52.7876 152.485 52.5983C152.366 52.409 152.275 52.6472 151.757 52.645L152.247 54.0174L152.919 53.7518Z" fill="#00A0E3"/>
<path fill-rule="evenodd" clip-rule="evenodd" d="M158.859 55.3981L158.52 53.6844L157.837 53.754L158.177 55.4234L158.859 55.3981Z" fill="#00A0E3"/>
<path fill-rule="evenodd" clip-rule="evenodd" d="M153.015 56.0147L153.632 55.9811C153.548 55.5413 153.287 54.5444 153.171 54.4159L152.5 54.5862L153.015 56.0147Z" fill="#00A0E3"/>
<path fill-rule="evenodd" clip-rule="evenodd" d="M159.167 57.6045C159.167 57.1542 159.107 56.3989 159.052 56.2832C158.999 56.174 158.6 56.2807 158.342 56.259L158.45 56.9657C158.45 57.2892 158.527 57.7702 158.641 57.7702C158.8 57.7297 159.167 57.8188 159.167 57.6045Z" fill="#00A0E3"/>
<path fill-rule="evenodd" clip-rule="evenodd" d="M153.64 58.0564L154.166 57.9456C154.063 57.5569 153.975 57.0588 153.889 56.6865C153.471 56.6955 153.337 56.7088 153.228 56.7566C153.25 56.872 153.443 57.5219 153.64 58.0564Z" fill="#00A0E3"/>
<path fill-rule="evenodd" clip-rule="evenodd" d="M153.611 55.0065L154.461 58.3082L158.472 59.485L157.322 53.7243C155.726 53.255 154.527 52.9987 152.778 52.6274L153.611 55.0065Z" fill="#00A0E3"/>
<path fill-rule="evenodd" clip-rule="evenodd" d="M158.751 59.6205L159.444 59.7648L159.327 58.7352C159.328 58.6564 159.227 58.6607 158.61 58.6091L158.751 59.6205Z" fill="#00A0E3"/>
<path fill-rule="evenodd" clip-rule="evenodd" d="M40.5557 59.066C40.5557 59.7183 43.3607 60.6895 44.0281 60.7457L44.0279 58.6455C44.0279 58.0608 41.2703 57.1225 40.5557 57.1064V59.066Z" fill="#00A0E3"/>
<path fill-rule="evenodd" clip-rule="evenodd" d="M47.7778 45.0691C47.212 46.257 45.8335 51.4572 45.8335 53.1874C45.293 53.1418 44.8535 52.5386 44.6735 52.1168C44.5406 51.8053 44.5754 51.5201 44.4191 51.2537C44.2084 50.8944 44.0281 51.1546 44.0281 50.6679C44.0279 49.8083 44.7204 50.5894 45.0329 49.4411C45.2429 48.669 45.3137 48.5006 45.6904 47.864C46.2544 46.9115 46.8773 46.086 47.3613 45.0694L46.5279 44.9287C46.0348 44.5965 44.0955 43.2495 43.4723 43.2495C43.2002 43.2489 42.6392 44.7014 42.6392 45.0694C42.6389 45.3388 42.8868 45.6291 43.0557 45.6291C43.6151 45.6288 44.4407 45.0694 45.0001 45.0694L45.4169 45.0691C45.148 46.0832 42.3614 49.6399 42.3614 50.248C42.3614 51.0883 45.8836 54.3501 45.9722 55.427C44.875 55.169 40.8424 53.7474 40.278 53.7474C39.8697 53.7469 36.9446 58.4845 36.9446 58.786V61.1648C38.1129 60.8508 37.7825 59.1819 39.167 59.066L39.1667 58.5054C39.1667 57.9386 40.4156 55.9864 40.6945 55.9864C41.5134 55.9862 42.9544 56.9666 43.7503 56.9666C44.3 56.9657 43.756 55.8465 44.3057 55.8465C44.8252 55.8458 45.1138 56.0622 45.36 56.2692L45.6947 60.8851C46.1458 60.5516 46.118 59.1213 46.1105 58.3653C46.097 57.0366 46.6669 56.3821 46.6669 55.9864C46.6666 55.4245 46.1113 54.4995 46.1113 53.6073C46.1113 52.7448 47.2144 47.816 47.4985 47.1668C47.7199 46.659 49.7181 41.6221 49.7225 41.5702C48.9696 41.772 48.1618 44.2633 47.7778 45.0691Z" fill="#00A0E3"/>
<path fill-rule="evenodd" clip-rule="evenodd" d="M5.69412 64.6637C5.98704 65.0659 16.9316 68.2316 17.3614 68.0238C17.1122 67.0839 13.2848 66.3326 12.1122 66.0352C10.7757 65.696 7.77456 64.3848 6.38903 64.3848L6.11123 64.3843C5.8601 64.3843 5.73025 64.4546 5.69466 64.6645L5.69412 64.6637Z" fill="#00A0E3"/>
<path fill-rule="evenodd" clip-rule="evenodd" d="M17.7999 60.884L9.30542 63.684C9.36439 64.401 10.5134 64.4619 11.2462 64.6685C11.9164 64.8568 13.1079 65.2462 13.6177 65.3579C15.2589 65.7163 16.7183 66.385 18.3334 66.7642L18.2746 68.7274L18.7499 75.4414V76.2808C19.755 76.0112 23.3498 68.7237 24.0277 68.7237L24.3055 68.7234C26.1251 68.7234 30.2347 70.9216 32.0835 70.9632C31.768 69.7728 26.9445 64.5078 26.9445 63.9646C26.9445 63.3902 31.2215 57.7316 31.5278 56.4066L31.111 56.4062C29.8683 56.4062 24.2863 59.066 23.3336 59.066C22.6018 59.066 18.4991 52.5791 17.5477 52.3501L17.7999 60.884Z" fill="#E31E24"/>
<path fill-rule="evenodd" clip-rule="evenodd" d="M26.8055 26.4531C26.3838 26.229 24.3581 23.7325 24.3055 23.0946C24.9772 23.2522 26.6587 24.3542 26.9445 24.3542C27.595 24.3542 29.0115 22.713 29.028 21.9751C28.3594 21.7948 26.6578 20.5754 26.2499 20.5754C25.7867 20.5745 24.1255 22.3059 24.0278 22.6745H23.6112L23.6987 22.5604L22.9165 22.1139V22.534C22.9165 23.2239 27.0343 28.4254 27.6375 28.8289L35 26.3137C34.9742 27.4827 30.9723 32.7273 30.9723 33.1722C30.972 33.8167 35.616 38.799 35.6944 39.7506C33.6476 39.5782 29.9169 37.6512 28.3335 37.6512C27.571 37.6512 24.454 44.3478 23.3336 44.6493L23.3333 43.5287C23.3333 42.9076 19.3732 41.7104 18.75 41.7104C17.6244 41.7096 17.4505 46.8263 16.5278 47.4488C16.4399 47.2812 15.3738 45.5051 15.3059 45.461C14.6171 45.0146 14.0909 44.543 13.8993 43.6227L16.111 44.0892C16.2807 43.4469 16.9447 42.0447 16.9447 41.4301C16.9441 40.6713 15.2778 41.0778 15.2778 40.4505C15.2776 39.9863 15.6895 39.6613 15.9792 39.4347L17.3609 39.7501C17.7568 39.4036 18.698 37.5825 18.75 36.9513C17.822 36.7004 16.0706 35.8316 15.139 35.8316C14.6979 35.8308 14.1787 37.2544 14.1666 37.7911L14.7219 37.7905C14.6985 38.8552 12.0835 41.703 12.0835 42.41L12.0832 42.6895C12.0832 43.5026 14.9995 46.105 15.253 47.3948L9.72226 45.9083C9.43263 47.0015 6.94447 49.7956 6.94447 50.8081L6.94424 52.347C6.94424 52.7217 7.14497 52.7614 7.36135 52.9075C7.73646 51.2823 8.4723 53.4376 8.4723 50.948C8.69113 50.6175 10.5929 47.5887 10.6945 47.5887C11.0655 47.5884 11.1053 47.7905 11.2676 47.9208L14.7219 48.7076C15.0081 48.5145 15.0828 48.2883 15.4168 48.2883C16.5895 48.2883 18.9639 52.0077 19.6645 52.9658C20.2465 53.7611 23.1251 57.638 23.7502 57.8061C23.7521 57.8032 23.889 57.5451 23.889 57.5264C23.889 56.8406 22.4466 55.9015 22.3611 54.867C24.0414 55.0074 26.9278 56.1266 28.1945 56.1266C29.5792 56.1266 32.7097 54.3366 34.0279 54.3072C33.9249 55.553 28.3335 62.9299 28.3335 63.9647C28.3333 65.0195 34.8333 71.6604 34.8438 72.9801L24.5833 69.8427C23.9924 70.2416 18.3334 79.0433 18.3334 79.7809L18.3022 80.2051L18.4719 81.4607C19.6655 81.1394 24.9371 70.9633 25.6945 70.9633L25.9724 70.9627C26.425 70.9627 30.463 72.4024 31.2811 72.6115C32.5776 72.9426 35.6985 74.1577 36.8057 74.1824C36.5168 72.9314 29.7223 65.2428 29.7223 64.6645C29.7223 63.9085 33.3058 58.777 33.8889 57.6663C34.4051 57.7094 35.7696 58.2263 35.9722 58.2263C36.5974 58.2254 36.1118 55.5742 36.1059 55.1522C36.0859 53.7559 36.4554 52.5916 35.4058 52.2187C34.5935 51.9298 30.5735 50.684 29.8613 50.668C29.8837 49.6378 31.8529 49.4661 32.6914 49.1813C33.3249 48.9662 35.6944 48.4591 35.6944 47.8687C35.6944 47.2044 32 46.1026 31.207 45.8128C29.7719 45.2872 27.6516 44.4187 26.2499 44.0895V43.6691C26.2499 43.3429 26.6206 42.9698 26.9445 42.9698C28.1498 42.9692 34.2434 46.049 35.2778 46.049C35.9933 46.049 35.5556 45.3245 35.5556 44.6493L35.5554 41.9894C36.4173 42.2218 39.1329 46.7489 39.5834 46.7489C41.2804 46.7489 41.2869 44.8508 41.8611 43.4456C42.0503 42.9815 43.6112 39.611 43.6112 39.6105C43.6112 38.6257 32.9166 34.0323 32.9166 33.4522C32.9164 33.1279 33.0718 32.6125 33.3335 32.6125C34.445 32.6116 43.827 38.3508 44.028 38.3508C44.7941 38.35 45.51 35.6918 46.2502 35.6918L46.389 35.6915C46.8745 35.6915 48.6516 37.5111 49.3058 37.5111C49.7722 37.5105 49.4445 36.5304 49.4691 35.8911L43.1943 34.0117L43.2011 33.6119L49.1667 31.632V30.7925C49.1667 30.1714 34.4021 19.8755 33.7501 19.8755L33.6111 19.8746C32.6141 19.8746 27.7876 25.93 26.8055 26.4539V26.4531Z" fill="#00A0E3"/>
<path fill-rule="evenodd" clip-rule="evenodd" d="M51.3553 54.955C51.3553 59.1882 52.919 61.8148 54.513 63.3906C55.8924 64.7498 58.3449 66.3927 62.3915 66.3927C66.4379 66.3922 68.8904 64.7501 70.27 63.3906C71.8641 61.8142 73.4274 59.1882 73.4274 54.9552C73.4274 50.7217 71.8641 48.0957 70.27 46.52C68.8904 45.1601 66.4381 43.5225 62.3915 43.5225C58.3449 43.5216 55.8927 45.1604 54.513 46.52C52.9187 48.0955 51.3556 50.722 51.3553 54.955ZM57.6705 54.8619C57.6705 52.6995 58.0386 51.2163 58.6823 50.1967C59.1112 49.5479 60.2152 48.1883 62.3915 48.1883C64.5679 48.1883 65.6718 49.5479 66.1008 50.1967C66.7445 51.2155 67.1126 52.6995 67.1126 54.8624C67.1123 57.056 66.7445 58.5394 66.1008 59.559C65.6716 60.2075 64.5681 61.5674 62.3915 61.5674C60.2149 61.5671 59.1115 60.2081 58.6823 59.559C58.0386 58.5386 57.6705 57.0563 57.6705 54.8624V54.8619Z" fill="#F6DA0A"/>
<path fill-rule="evenodd" clip-rule="evenodd" d="M76.1863 44.1398V65.7688H82.2562V59.0953H84.3714C86.7625 59.0953 89.3988 58.9411 91.4221 57.5815C93.8132 55.974 94.2732 53.6573 94.2732 51.6182C94.2729 49.5783 93.8135 47.2614 91.4221 45.6547C89.3988 44.2943 86.7627 44.1405 84.3714 44.1405L76.1863 44.1398ZM82.2562 48.4659H84.5551C85.2603 48.4659 86.4561 48.528 87.2225 49.1462C88.0807 49.8257 88.1728 50.9384 88.1728 51.556C88.1728 52.1742 88.0807 53.2866 87.2225 53.9664C86.4561 54.5842 85.2603 54.6462 84.5554 54.6462L82.2562 54.6459V48.4659Z" fill="#F6DA0A"/>
<path fill-rule="evenodd" clip-rule="evenodd" d="M110.643 57.1174C110.643 58.2923 110.245 59.4357 109.632 60.2081C109.049 60.9186 108.099 61.5983 106.505 61.5674C104.849 61.5367 103.776 60.795 103.041 59.559C102.244 58.1994 102.121 56.4072 102.121 54.8624C102.121 53.2863 102.244 51.5561 103.041 50.1967C103.776 48.96 104.849 48.1883 106.505 48.1883C108.068 48.1883 109.049 48.8991 109.57 49.5479C110.183 50.3198 110.582 51.4944 110.612 52.6378H116.866C116.713 49.1761 114.966 47.0453 113.893 46.0873C112.728 45.0369 110.398 43.5225 106.443 43.5225C103.439 43.5216 100.772 44.3877 98.6569 46.6745C96.2658 49.2693 95.8058 52.4832 95.8058 54.9552C95.8058 57.4267 96.2658 60.6404 98.6569 63.236C100.772 65.5526 103.439 66.3927 106.443 66.3927C108.558 66.3922 111.471 65.9913 113.862 63.8541C115.303 62.5557 116.835 60.3933 116.958 57.1182L110.643 57.1174Z" fill="#F6DA0A"/>
<path fill-rule="evenodd" clip-rule="evenodd" d="M119.717 44.1398V65.7688H125.787V56.6852H128.576L132.96 65.7688H139.95L133.512 54.3053L139.888 44.1398H133.297L128.576 52.2358H125.787V44.1398H119.717Z" fill="#F6DA0A"/>
<path fill-rule="evenodd" clip-rule="evenodd" d="M51.3553 54.955C51.3553 59.1882 52.919 61.8148 54.513 63.3906C55.8924 64.7498 58.3449 66.3927 62.3915 66.3927C66.4379 66.3922 68.8904 64.7501 70.27 63.3906C71.8641 61.8142 73.4274 59.1882 73.4274 54.9552C73.4274 50.7217 71.8641 48.0957 70.27 46.52C68.8904 45.1601 66.4381 43.5225 62.3915 43.5225C58.3449 43.5216 55.8927 45.1604 54.513 46.52C52.9187 48.0955 51.3553 50.722 51.3553 54.955Z" stroke="#2B2A29" stroke-width="0.0761999" stroke-miterlimit="10"/>
<path d="M57.6705 54.8618C57.6705 52.6994 58.0385 51.2162 58.6823 50.1966C59.1112 49.5478 60.2151 48.1882 62.3915 48.1882C64.5679 48.1882 65.6718 49.5478 66.1007 50.1966C66.7445 51.2154 67.1126 52.6994 67.1126 54.8623C67.1126 57.0559 66.7445 58.5393 66.1007 59.5589C65.6716 60.2074 64.5681 61.5673 62.3915 61.5673C60.2149 61.567 59.1115 60.208 58.6823 59.5589C58.0385 58.5385 57.6705 57.0562 57.6705 54.8623" stroke="#2B2A29" stroke-width="0.0761999" stroke-miterlimit="10"/>
<path d="M57.6705 54.8625V54.8618" stroke="#2B2A29" stroke-width="0.0761999" stroke-miterlimit="10"/>
<path d="M76.1863 44.1398V65.7688H82.2562V59.0953H84.3713" stroke="#2B2A29" stroke-width="0.0761999" stroke-miterlimit="10"/>
<path d="M84.3714 59.0953C86.7625 59.0953 89.3989 58.941 91.4222 57.5815C93.8132 55.9739 94.2732 53.6573 94.2732 51.6181C94.2732 49.5782 93.8135 47.2614 91.4222 45.6547C89.3989 44.2942 86.7627 44.1405 84.3714 44.1405" stroke="#2B2A29" stroke-width="0.0761999" stroke-miterlimit="10"/>
<path d="M84.3713 44.1405L76.1863 44.1398" stroke="#2B2A29" stroke-width="0.0761999" stroke-miterlimit="10"/>
<path d="M82.2562 48.4659H84.5551" stroke="#2B2A29" stroke-width="0.0761999" stroke-miterlimit="10"/>
<path d="M84.5551 48.4659C85.2603 48.4659 86.4561 48.5281 87.2225 49.1463C88.0807 49.8257 88.1728 50.9384 88.1728 51.5561C88.1728 52.1742 88.0807 53.2866 87.2225 53.9664C86.4561 54.5842 85.2603 54.6462 84.5554 54.6462" stroke="#2B2A29" stroke-width="0.0761999" stroke-miterlimit="10"/>
<path d="M84.5554 54.6462L82.2562 54.6459V48.4659" stroke="#2B2A29" stroke-width="0.0761999" stroke-miterlimit="10"/>
<path d="M110.643 57.1173C110.643 58.2922 110.245 59.4356 109.631 60.208C109.049 60.9185 108.099 61.5982 106.504 61.5673C104.849 61.5366 103.776 60.7949 103.04 59.5589C102.243 58.1993 102.121 56.4071 102.121 54.8623C102.121 53.2862 102.243 51.556 103.04 50.1966C103.776 48.9599 104.849 48.1882 106.504 48.1882C108.068 48.1882 109.049 48.899 109.57 49.5478C110.183 50.3197 110.582 51.4943 110.612 52.6377" stroke="#2B2A29" stroke-width="0.0761999" stroke-miterlimit="10"/>
<path d="M110.612 52.6377H116.866" stroke="#2B2A29" stroke-width="0.0761999" stroke-miterlimit="10"/>
<path d="M116.866 52.6378C116.713 49.1761 114.966 47.0453 113.893 46.0873C112.728 45.0369 110.398 43.5225 106.443 43.5225C103.439 43.5216 100.772 44.3877 98.6569 46.6745C96.2658 49.2693 95.8058 52.4832 95.8058 54.9552C95.8058 57.4267 96.2658 60.6404 98.6569 63.236C100.772 65.5526 103.439 66.3927 106.443 66.3927C108.558 66.3922 111.471 65.9913 113.862 63.8541C115.303 62.5557 116.835 60.3933 116.958 57.1182" stroke="#2B2A29" stroke-width="0.0761999" stroke-miterlimit="10"/>
<path d="M116.958 57.1182L110.643 57.1173" stroke="#2B2A29" stroke-width="0.0761999" stroke-miterlimit="10"/>
<path fill-rule="evenodd" clip-rule="evenodd" d="M119.717 44.1398V65.7688H125.787V56.6852H128.576L132.96 65.7688H139.95L133.512 54.3053L139.888 44.1398H133.297L128.576 52.2358H125.787V44.1398H119.717Z" stroke="#2B2A29" stroke-width="0.0761999" stroke-miterlimit="10"/>
<path fill-rule="evenodd" clip-rule="evenodd" d="M51.2109 70.6606V78.7374H54.3204V75.4262H55.3624L56.8848 78.7374H60.3467L57.9906 74.4403L60.2663 70.6606H56.9809L55.3624 73.5837H54.3204V70.6606H51.2109Z" fill="#F6DA0A"/>
<path fill-rule="evenodd" clip-rule="evenodd" d="M61.148 70.6606V75.2C61.148 75.9908 61.1483 77.0739 61.7413 77.8979C61.9335 78.1717 62.6389 79.0152 64.1454 78.9992C64.9147 78.9829 65.556 78.7569 65.9887 78.415C66.3409 78.1393 66.5494 77.8333 66.6297 77.688L66.7577 78.7374H69.7389V70.6606H66.6295V74.9414C66.6295 75.3615 66.5977 75.7654 66.3894 76.1372C66.0847 76.6698 65.6039 76.767 65.2995 76.7508C64.8505 76.7344 64.6264 76.4925 64.5302 76.3309C64.3378 76.0232 64.3378 75.6041 64.3378 75.2V70.6606H61.148Z" fill="#F6DA0A"/>
<path fill-rule="evenodd" clip-rule="evenodd" d="M71.3417 70.6606V78.7374H74.4511V75.5555H76.6627V78.7374H79.7722V70.6606H76.6627V73.503H74.4511V70.6606H71.3417Z" fill="#F6DA0A"/>
<path fill-rule="evenodd" clip-rule="evenodd" d="M81.0542 74.6989C81.0542 76.2494 81.7276 77.3002 82.513 77.9626C83.2661 78.5919 84.324 79.064 85.8308 79.064C87.337 79.0636 88.3948 78.5927 89.1482 77.9626C89.9334 77.3 90.6068 76.2503 90.6068 74.6993C90.6068 73.1488 89.9337 72.0985 89.1482 71.4364C88.3948 70.8063 87.3373 70.3378 85.8308 70.3378C84.324 70.3375 83.2661 70.8063 82.513 71.4364C81.7276 72.0982 81.0544 73.1488 81.0542 74.6989ZM84.2919 74.6506C84.2919 74.1012 84.3399 73.6009 84.5484 73.1808C84.885 72.5184 85.4619 72.3894 85.8308 72.3894C86.1991 72.3891 86.7763 72.5186 87.1128 73.1808C87.3208 73.6001 87.3693 74.1018 87.3693 74.6509C87.3693 75.2164 87.3211 75.7332 87.1128 76.1373C86.776 76.7991 86.1991 76.9287 85.8308 76.9287C85.4616 76.9285 84.885 76.7994 84.5484 76.1373C84.3399 75.7323 84.2919 75.2164 84.2919 74.6506Z" fill="#F6DA0A"/>
<path fill-rule="evenodd" clip-rule="evenodd" d="M91.7285 70.6606V74.9577C91.7285 76.0071 91.7287 77.1388 92.3698 77.9948C92.7705 78.5272 93.5079 79.0476 94.7418 79.0315C95.4952 79.0312 96.0721 78.8376 96.5692 78.415C96.8734 78.1554 97.0658 77.8819 97.1781 77.6556C97.242 77.9454 97.4026 78.2371 97.5947 78.415C97.803 78.6081 98.1078 78.7379 98.4602 78.7379V81.9706H101.538V77.7687C100.977 77.8172 100.512 77.5587 100.304 77.2681C100.079 76.9284 100.095 76.4601 100.095 76.1209L100.095 70.6606H96.9537V75.0869C96.9537 75.4585 96.9699 75.7817 96.8095 76.1209C96.633 76.4919 96.3448 76.6863 95.912 76.6863C95.3669 76.6858 95.1266 76.3795 95.0145 76.1048C94.9342 75.8938 94.9021 75.6201 94.9021 75.0872V70.6606H91.7285Z" fill="#F6DA0A"/>
<path fill-rule="evenodd" clip-rule="evenodd" d="M108.237 75.9909C108.221 76.1848 108.157 76.4279 107.948 76.7027C107.644 77.09 107.243 77.2519 106.698 77.2519C106.201 77.2516 105.64 77.1226 105.304 76.4602C105.128 76.1042 105.047 75.5879 105.064 75.184H111.41V75.0224C111.41 73.2617 110.769 72.1794 110.144 71.5654C109.054 70.483 107.564 70.3378 106.714 70.3378C105.752 70.3375 104.47 70.483 103.397 71.42C102.226 72.4537 102.018 73.7623 102.018 74.6993C102.018 76.3464 102.692 77.3649 103.397 77.9787C103.989 78.495 105.015 79.064 106.714 79.064C107.259 79.0636 109.022 79.0153 110.224 77.9303C110.705 77.5102 111.17 76.848 111.346 75.9917L108.237 75.9909ZM106.714 72.0659C107.115 72.0659 107.564 72.1308 107.948 72.5346C108.109 72.696 108.349 73.0355 108.381 73.5686L105.063 73.5678C105.096 73.0355 105.336 72.6962 105.496 72.5346C105.881 72.1142 106.33 72.0662 106.714 72.0662L106.714 72.0659Z" fill="#F6DA0A"/>
<path fill-rule="evenodd" clip-rule="evenodd" d="M112.693 70.6606V78.7374H115.802V75.5555H118.014V78.7374H121.123V70.6606H118.014V73.503H115.802V70.6606H112.693Z" fill="#F6DA0A"/>
<path fill-rule="evenodd" clip-rule="evenodd" d="M122.085 70.6606V72.7282H123.896V78.7374H127.005V72.7282H128.816V70.6606H122.085Z" fill="#F6DA0A"/>
<path fill-rule="evenodd" clip-rule="evenodd" d="M132.807 74.6506C132.807 74.2305 132.855 73.6816 133.112 73.2617C133.352 72.8576 133.753 72.5833 134.378 72.5833C134.907 72.583 135.34 72.7932 135.644 73.2617C135.932 73.7134 135.965 74.2473 135.965 74.6509C135.964 75.0708 135.933 75.6041 135.644 76.0563C135.34 76.5243 134.907 76.735 134.378 76.735C133.753 76.7345 133.352 76.4602 133.112 76.0563C132.855 75.6365 132.807 75.0873 132.807 74.6509L132.807 74.6506ZM129.778 70.6607V81.9707H132.887V77.6877C133.4 78.5273 134.282 78.9669 135.388 78.9669C136.734 78.9667 137.632 78.3504 138.128 77.8013C138.705 77.1706 139.202 76.121 139.202 74.6992C139.202 73.278 138.705 72.2278 138.128 71.5976C137.503 70.9021 136.558 70.4344 135.388 70.4344C134.57 70.4344 133.48 70.693 132.887 71.6786L132.775 70.6607H129.778Z" fill="#F6DA0A"/>
<path fill-rule="evenodd" clip-rule="evenodd" d="M51.2109 70.6606V78.7374H54.3204V75.4262H55.3624L56.8848 78.7374H60.3467L57.9906 74.4403L60.2663 70.6606H56.9809L55.3624 73.5837H54.3204V70.6606H51.2109Z" stroke="#2B2A29" stroke-width="0.0761999" stroke-miterlimit="10"/>
<path d="M61.148 70.6606V75.2" stroke="#2B2A29" stroke-width="0.0761999" stroke-miterlimit="10"/>
<path d="M61.148 75.2C61.148 75.9908 61.1483 77.0739 61.7413 77.8979C61.9335 78.1717 62.6389 79.0152 64.1454 78.9992C64.9147 78.9829 65.556 78.7569 65.9887 78.415C66.3409 78.1393 66.5494 77.8332 66.6297 77.688" stroke="#2B2A29" stroke-width="0.0761999" stroke-miterlimit="10"/>
<path d="M66.6297 77.688L66.7577 78.7374H69.7389V70.6606H66.6295V74.9414" stroke="#2B2A29" stroke-width="0.0761999" stroke-miterlimit="10"/>
<path d="M66.6295 74.9414C66.6295 75.3616 66.5977 75.7655 66.3894 76.1372C66.0846 76.6698 65.6039 76.767 65.2995 76.7508C64.8505 76.7345 64.6263 76.4925 64.5302 76.3309C64.3378 76.0232 64.3378 75.6041 64.3378 75.2" stroke="#2B2A29" stroke-width="0.0761999" stroke-miterlimit="10"/>
<path d="M64.3378 75.2V70.6606H61.148" stroke="#2B2A29" stroke-width="0.0761999" stroke-miterlimit="10"/>
<path fill-rule="evenodd" clip-rule="evenodd" d="M71.3417 70.6606V78.7374H74.4511V75.5555H76.6627V78.7374H79.7722V70.6606H76.6627V73.503H74.4511V70.6606H71.3417Z" stroke="#2B2A29" stroke-width="0.0761999" stroke-miterlimit="10"/>
<path fill-rule="evenodd" clip-rule="evenodd" d="M81.0542 74.6989C81.0542 76.2494 81.7276 77.3002 82.513 77.9626C83.2661 78.5919 84.324 79.064 85.8308 79.064C87.337 79.0636 88.3948 78.5927 89.1482 77.9626C89.9334 77.3 90.6068 76.2503 90.6068 74.6993C90.6068 73.1488 89.9337 72.0985 89.1482 71.4364C88.3948 70.8063 87.3373 70.3378 85.8308 70.3378C84.324 70.3375 83.2661 70.8063 82.513 71.4364C81.7276 72.0982 81.0542 73.1488 81.0542 74.6989V74.6989Z" stroke="#2B2A29" stroke-width="0.0761999" stroke-miterlimit="10"/>
<path fill-rule="evenodd" clip-rule="evenodd" d="M84.2919 74.6505C84.2919 74.1011 84.3399 73.6008 84.5484 73.1807C84.8849 72.5183 85.4618 72.3893 85.8308 72.3893C86.1991 72.389 86.7763 72.5185 87.1128 73.1807C87.3208 73.6 87.3693 74.1017 87.3693 74.6508C87.3693 75.2163 87.3211 75.7331 87.1128 76.1372C86.776 76.799 86.1991 76.9286 85.8308 76.9286C85.4616 76.9284 84.8849 76.7993 84.5484 76.1372C84.3399 75.7322 84.2919 75.2163 84.2919 74.6505V74.6505Z" stroke="#2B2A29" stroke-width="0.0761999" stroke-miterlimit="10"/>
<path d="M91.7285 70.6606V74.9577" stroke="#2B2A29" stroke-width="0.0761999" stroke-miterlimit="10"/>
<path d="M91.7285 74.9578C91.7285 76.0072 91.7287 77.1389 92.3698 77.9949C92.7705 78.5273 93.5079 79.0477 94.7418 79.0316C95.4952 79.0313 96.0721 78.8377 96.5692 78.4151C96.8734 78.1555 97.0658 77.882 97.1781 77.6557C97.242 77.9455 97.4026 78.2372 97.5947 78.4151C97.803 78.6082 98.1078 78.738 98.4602 78.738" stroke="#2B2A29" stroke-width="0.0761999" stroke-miterlimit="10"/>
<path d="M98.46 78.7379V81.9706H101.537V77.7687" stroke="#2B2A29" stroke-width="0.0761999" stroke-miterlimit="10"/>
<path d="M101.537 77.7687C100.976 77.8173 100.512 77.5588 100.303 77.2681C100.079 76.9284 100.095 76.4602 100.095 76.121" stroke="#2B2A29" stroke-width="0.0761999" stroke-miterlimit="10"/>
<path d="M100.095 76.1209L100.095 70.6606H96.9537V75.0869" stroke="#2B2A29" stroke-width="0.0761999" stroke-miterlimit="10"/>
<path d="M96.9537 75.087C96.9537 75.4586 96.9699 75.7818 96.8095 76.121C96.633 76.492 96.3448 76.6864 95.912 76.6864C95.3669 76.6859 95.1266 76.3796 95.0145 76.1049C94.9342 75.8939 94.9021 75.6202 94.9021 75.0873" stroke="#2B2A29" stroke-width="0.0761999" stroke-miterlimit="10"/>
<path d="M94.9021 75.0872V70.6606H91.7285" stroke="#2B2A29" stroke-width="0.0761999" stroke-miterlimit="10"/>
<path d="M108.237 75.9908C108.221 76.1848 108.157 76.4278 107.948 76.7027C107.644 77.09 107.243 77.2518 106.698 77.2518C106.201 77.2516 105.64 77.1225 105.304 76.4602C105.128 76.1041 105.047 75.5878 105.064 75.184" stroke="#2B2A29" stroke-width="0.0761999" stroke-miterlimit="10"/>
<path d="M105.064 75.1839H111.41V75.0223" stroke="#2B2A29" stroke-width="0.0761999" stroke-miterlimit="10"/>
<path d="M111.41 75.0224C111.41 73.2617 110.769 72.1794 110.144 71.5654C109.054 70.483 107.564 70.3378 106.714 70.3378C105.752 70.3375 104.47 70.483 103.397 71.42C102.226 72.4537 102.018 73.7623 102.018 74.6993C102.018 76.3464 102.692 77.3649 103.397 77.9787C103.989 78.495 105.015 79.064 106.714 79.064C107.259 79.0636 109.022 79.0153 110.224 77.9303C110.705 77.5102 111.17 76.848 111.346 75.9917" stroke="#2B2A29" stroke-width="0.0761999" stroke-miterlimit="10"/>
<path d="M111.346 75.9916L108.237 75.9908" stroke="#2B2A29" stroke-width="0.0761999" stroke-miterlimit="10"/>
<path d="M106.714 72.0658C107.115 72.0658 107.564 72.1307 107.948 72.5346C108.109 72.6959 108.349 73.0354 108.381 73.5686" stroke="#2B2A29" stroke-width="0.0761999" stroke-miterlimit="10"/>
<path d="M108.381 73.5686L105.063 73.5677" stroke="#2B2A29" stroke-width="0.0761999" stroke-miterlimit="10"/>
<path d="M105.063 73.5678C105.096 73.0355 105.336 72.6962 105.496 72.5346C105.881 72.1142 106.33 72.0662 106.714 72.0662" stroke="#2B2A29" stroke-width="0.0761999" stroke-miterlimit="10"/>
<path d="M106.714 72.0662L106.714 72.0658" stroke="#2B2A29" stroke-width="0.0761999" stroke-miterlimit="10"/>
<path fill-rule="evenodd" clip-rule="evenodd" d="M112.693 70.6606V78.7374H115.802V75.5555H118.014V78.7374H121.123V70.6606H118.014V73.503H115.802V70.6606H112.693Z" stroke="#2B2A29" stroke-width="0.0761999" stroke-miterlimit="10"/>
<path fill-rule="evenodd" clip-rule="evenodd" d="M122.085 70.6606V72.7282H123.896V78.7374H127.005V72.7282H128.816V70.6606H122.085Z" stroke="#2B2A29" stroke-width="0.0761999" stroke-miterlimit="10"/>
<path d="M132.807 74.6506C132.807 74.2304 132.855 73.6815 133.112 73.2617C133.352 72.8576 133.753 72.5833 134.378 72.5833C134.907 72.5829 135.34 72.7932 135.644 73.2617C135.932 73.7133 135.965 74.2472 135.965 74.6509C135.965 75.0707 135.933 75.6041 135.644 76.0563C135.34 76.5242 134.907 76.735 134.378 76.735C133.753 76.7345 133.352 76.4602 133.112 76.0563C132.855 75.6364 132.807 75.0873 132.807 74.6509" stroke="#2B2A29" stroke-width="0.0761999" stroke-miterlimit="10"/>
<path d="M132.807 74.6509L132.807 74.6505" stroke="#2B2A29" stroke-width="0.0761999" stroke-miterlimit="10"/>
<path d="M129.778 70.6606V81.9706H132.887V77.6877" stroke="#2B2A29" stroke-width="0.0761999" stroke-miterlimit="10"/>
<path d="M132.887 77.6877C133.4 78.5273 134.282 78.9669 135.388 78.9669C136.734 78.9667 137.632 78.3504 138.128 77.8013C138.705 77.1706 139.202 76.121 139.202 74.6992C139.202 73.278 138.705 72.2278 138.128 71.5976C137.503 70.9021 136.558 70.4344 135.388 70.4344C134.57 70.4344 133.48 70.693 132.887 71.6786" stroke="#2B2A29" stroke-width="0.0761999" stroke-miterlimit="10"/>
<path d="M132.887 71.6786L132.775 70.6606H129.778" stroke="#2B2A29" stroke-width="0.0761999" stroke-miterlimit="10"/>
</g>
<defs>
<clipPath id="clip0">
<rect width="160" height="82" fill="white"/>
</clipPath>
</defs>
</svg>
