<svg width="236" height="121" viewBox="0 0 236 121" fill="none" xmlns="http://www.w3.org/2000/svg">
<path fill-rule="evenodd" clip-rule="evenodd" d="M105.702 1.99302C105.862 2.73075 106.771 4.95699 107.552 4.95699L107.962 4.95585C108.751 4.95585 111.65 4.9738 111.65 4.33741C111.65 4.00637 110.651 1.61269 110.209 1.58179L105.702 1.99302Z" fill="#00A0E3"/>
<path fill-rule="evenodd" clip-rule="evenodd" d="M134.389 3.5103C134.389 4.86204 134.622 5.84185 135.827 5.98578C136.839 6.10518 138.758 6.39054 139.306 6.40338V4.33743C139.306 3.1837 137.683 3.64651 136.678 3.47543C136.009 3.3608 134.389 2.26955 134.389 3.51144V3.5103Z" fill="#00A0E3"/>
<path fill-rule="evenodd" clip-rule="evenodd" d="M112.879 1.85872C112.879 2.06275 113.901 4.5438 114.517 4.5438L118 4.543C119.254 4.543 118.151 1.4459 117.181 1.4459L113.493 1.44556C113.158 1.44556 112.879 1.56938 112.879 1.85872Z" fill="#00A0E3"/>
<path fill-rule="evenodd" clip-rule="evenodd" d="M120.254 2.47871C120.254 2.94084 120.416 2.93198 120.663 3.30471C120.663 4.92613 120.861 4.55273 122.511 4.54023C123.67 4.52944 124.218 4.75062 125.58 4.75062C125.58 3.7724 125.315 1.91127 124.369 1.84118C123.039 1.74258 121.477 1.65283 120.254 1.65283V2.47871Z" fill="#00A0E3"/>
<path fill-rule="evenodd" clip-rule="evenodd" d="M127.629 4.54302L128.045 4.90211L132.545 5.37015V4.54302C132.545 3.38326 132.21 2.94363 131.521 2.47866C126.922 2.47866 127.629 0.876427 127.629 4.54381V4.54302Z" fill="#00A0E3"/>
<path fill-rule="evenodd" clip-rule="evenodd" d="M100.792 2.47872H98.7431V3.30437C98.7431 3.45944 99.8086 5.26445 99.9723 5.57662C100.904 5.57628 104.684 5.64194 104.684 4.75063C104.684 4.24931 103.342 2.06555 102.841 2.06555C101.977 2.06442 101.861 2.47872 100.792 2.47872Z" fill="#00A0E3"/>
<path fill-rule="evenodd" clip-rule="evenodd" d="M141.354 4.95585V5.57622C141.354 6.20659 141.551 6.41017 141.764 6.81572C142.83 6.81447 146.066 8.37592 146.066 7.02248V5.78298C146.066 5.31971 145.904 5.32971 145.656 4.95698C143.688 4.95585 143.829 4.3374 142.379 4.3374H141.969C141.497 4.3374 141.355 4.48088 141.355 4.95698L141.354 4.95585Z" fill="#00A0E3"/>
<path fill-rule="evenodd" clip-rule="evenodd" d="M93.6217 3.51026L91.6113 3.52503L91.3514 4.14223L93.0072 6.81447L94.0207 6.73722L97.2793 6.37767L97.7324 5.77411L96.0798 2.89148C95.0548 2.97645 94.314 3.5114 93.6217 3.5114V3.51026Z" fill="#00A0E3"/>
<path fill-rule="evenodd" clip-rule="evenodd" d="M84.1979 5.57622C84.564 6.12719 86.0301 8.46805 86.6565 8.46805L86.8611 8.46726C87.6211 8.46726 90.4727 7.55674 90.9588 7.22889C90.5601 6.62817 89.2311 4.3374 88.5002 4.3374H88.2955C87.753 4.3374 84.6534 5.33414 84.1983 5.57656L84.1979 5.57622Z" fill="#00A0E3"/>
<path fill-rule="evenodd" clip-rule="evenodd" d="M148.115 7.64165C148.115 8.4523 149.376 8.34938 150.163 8.8816L151.392 8.88035C151.557 8.99657 151.898 9.29432 152.007 9.29432C152.767 9.29318 152.81 7.77308 152.826 7.02241C152.392 6.81168 149.865 5.98966 149.344 5.98966L148.115 5.98853V7.64165Z" fill="#00A0E3"/>
<path fill-rule="evenodd" clip-rule="evenodd" d="M77.4379 7.64174C77.4379 7.99515 79.4183 10.3272 79.896 10.3272L80.5105 10.326C81.5823 10.326 82.7664 9.32213 83.9932 9.29441C83.9682 8.17226 82.504 6.60411 81.7397 6.19617C80.8972 6.26592 77.4379 7.06624 77.4379 7.64174Z" fill="#00A0E3"/>
<path fill-rule="evenodd" clip-rule="evenodd" d="M154.875 9.5004C154.875 9.96401 155.037 9.95447 155.314 10.2181L158.972 11.1519C159.185 10.7463 159.382 10.5439 159.382 9.91391V9.5004C159.382 8.87878 156.192 7.84842 156.104 7.84842L154.875 7.84717V9.5004Z" fill="#00A0E3"/>
<path fill-rule="evenodd" clip-rule="evenodd" d="M70.4723 10.1203C70.6885 10.4454 73.2163 12.8054 73.3406 12.8054C74.8835 12.8046 75.4332 11.7727 77.0281 11.7727C77.1426 11.6064 77.4379 11.2629 77.4379 11.1531C77.4379 10.7242 75.1716 8.2616 74.7746 8.2616C74.1153 8.26046 70.7859 9.68911 70.4723 10.1203Z" fill="#00A0E3"/>
<path fill-rule="evenodd" clip-rule="evenodd" d="M161.225 10.946V11.5647C161.225 12.0285 161.388 12.0196 161.635 12.3923C163.203 12.3919 164.36 13.4251 164.913 13.4251C165.434 13.4247 165.732 12.0705 165.732 11.3599C165.202 11.2161 162.333 9.914 162.045 9.914L161.43 9.91321C161.323 10.3769 161.225 10.389 161.225 10.9468V10.946Z" fill="#00A0E3"/>
<path fill-rule="evenodd" clip-rule="evenodd" d="M167.208 13.8571C167.718 14.6679 170.094 15.697 171.489 15.7026L171.878 13.8379C171.142 13.6648 168.595 12.3923 168.396 12.3923L167.852 12.4232L167.208 13.8571Z" fill="#00A0E3"/>
<path fill-rule="evenodd" clip-rule="evenodd" d="M64.1216 12.8047C64.1216 13.3786 66.7324 15.697 66.99 15.697C67.6417 15.6967 71.0871 14.0707 71.0871 13.8383C71.0868 13.2624 68.4768 10.9468 68.2192 10.9468C67.5559 10.946 64.1216 12.4428 64.1216 12.8055V12.8047Z" fill="#00A0E3"/>
<path fill-rule="evenodd" clip-rule="evenodd" d="M173.253 16.9172C173.806 17.1986 176.258 18.3816 176.795 18.3816C177.581 18.3808 177.801 17.5524 177.819 16.7296C177.216 16.5665 175.094 15.2837 174.746 15.2837L173.737 15.2877L173.253 16.9172Z" fill="#00A0E3"/>
<path fill-rule="evenodd" clip-rule="evenodd" d="M57.7709 16.1092C57.7709 16.7561 60.4544 18.6846 61.051 19.0052L64.7364 17.142C64.7055 15.747 62.572 14.4514 61.6634 13.8381C61.053 14.1624 57.7713 15.5418 57.7713 16.1097L57.7709 16.1092Z" fill="#00A0E3"/>
<path fill-rule="evenodd" clip-rule="evenodd" d="M179.048 19.4137L179.306 19.925L182.705 21.3853L183.145 21.2723C183.253 20.8103 183.351 20.7987 183.351 20.2408C183.351 19.6088 180.811 18.1753 180.073 18.1753C179.409 18.1753 179.32 18.8978 179.048 19.4145V19.4137Z" fill="#00A0E3"/>
<path fill-rule="evenodd" clip-rule="evenodd" d="M51.6252 20.2391C52.2659 20.4736 54.9209 22.7191 55.108 22.7191C55.513 22.7178 58.7955 20.4892 58.7955 20.2407C58.7951 19.709 55.6696 17.3492 55.5178 17.3492C54.9256 17.348 51.7067 19.2573 51.6252 20.2407V20.2391Z" fill="#00A0E3"/>
<path fill-rule="evenodd" clip-rule="evenodd" d="M132.114 22.517L146.488 23.3426L146.596 23.5393L146.025 8.71484L145.648 8.31371L130.292 5.98853L128.134 6.01534L132.114 22.517Z" fill="#00A0E3"/>
<path fill-rule="evenodd" clip-rule="evenodd" d="M107.757 6.19611C107.757 7.64327 115.271 20.809 115.953 23.7691L126.604 22.7178L130.486 22.6674L129.194 17.9336L126.604 8.67477C126.604 6.64461 126.324 5.56369 124.151 5.5713C122.219 5.57892 120.735 5.37012 118.615 5.37012H116.771C115.672 5.37012 107.757 5.66389 107.757 6.19611Z" fill="#00A0E3"/>
<path fill-rule="evenodd" clip-rule="evenodd" d="M184.58 22.3051C184.58 22.9852 187.28 24.5778 187.653 24.5778L188.389 24.5293L189.087 23.3382C188.761 23.1174 185.882 21.0668 185.809 21.0668C185.339 21.0668 184.58 22.2446 184.58 22.3059L184.58 22.3051Z" fill="#00A0E3"/>
<path fill-rule="evenodd" clip-rule="evenodd" d="M133.569 26.4353C134.574 26.4353 136.437 26.5615 136.437 25.8173V24.991C136.437 24.2948 136.076 23.5451 135.414 23.5451L132.545 23.5438C132.545 24.3397 132.959 26.4364 133.57 26.4364L133.569 26.4353Z" fill="#00A0E3"/>
<path fill-rule="evenodd" clip-rule="evenodd" d="M45.889 23.5438C45.9169 24.7929 46.6175 24.7717 47.4462 25.2798C47.7972 25.4947 49.3849 26.6433 49.5769 26.6433C50.2163 26.6425 53.0331 24.746 52.9889 23.6456L49.9863 21.2722H49.3718C48.8666 21.2722 46.8147 23.2961 45.8894 23.545L45.889 23.5438Z" fill="#00A0E3"/>
<path fill-rule="evenodd" clip-rule="evenodd" d="M127.423 23.9582C127.423 24.9942 127.697 26.6433 128.653 26.6433L130.702 26.6425C131.181 26.6425 131.521 26.3007 131.521 25.8173C131.521 25.3533 131.359 25.3641 131.111 24.991V23.9582C130.709 23.7438 130.507 23.5451 129.882 23.5451L128.038 23.5438C127.703 23.5438 127.424 23.6689 127.423 23.9582Z" fill="#00A0E3"/>
<path fill-rule="evenodd" clip-rule="evenodd" d="M137.872 24.1637C137.872 26.7037 138.794 26.4457 141.149 26.6433C141.336 26.5158 141.764 26.307 141.764 26.0237C141.764 25.2578 141.399 24.2756 141.145 23.793L138.282 23.5438C138.003 23.517 137.872 23.8436 137.872 24.165V24.1637Z" fill="#00A0E3"/>
<path fill-rule="evenodd" clip-rule="evenodd" d="M143.198 26.0224C143.198 26.7887 146.681 27.4945 146.681 26.4364V24.9909C146.681 24.3545 146.08 24.1649 145.451 24.1649L143.198 24.1637V26.0224Z" fill="#00A0E3"/>
<path fill-rule="evenodd" clip-rule="evenodd" d="M148.115 22.9255C148.115 24.1626 149.952 24.0375 151.177 24.175C152.169 24.2859 153.737 24.9332 154.744 25.1232C156.807 25.5115 160.753 26.6433 162.25 26.6433C162.342 25.5232 163.21 21.9046 163.561 20.5297C163.854 19.3791 164.913 15.3121 164.913 14.4574C164.913 13.6322 158.637 11.967 157.535 11.5694C156.872 11.3291 149.837 9.29435 149.549 9.29435L148.115 9.29321V22.9255Z" fill="#00A0E3"/>
<path fill-rule="evenodd" clip-rule="evenodd" d="M122.111 24.2461C122.097 25.0419 122.626 27.0565 123.327 27.0565L124.146 27.0558C125.255 27.0558 125.74 26.8818 126.412 26.4322L125.565 23.9972L124.965 23.7527L122.111 24.2461Z" fill="#00A0E3"/>
<path fill-rule="evenodd" clip-rule="evenodd" d="M148.319 25.4041L148.313 27.0913L150.983 27.4684H151.802V25.8168C151.802 25.3532 151.64 25.364 151.393 24.9909C150.193 24.9909 148.319 24.336 148.319 25.4041Z" fill="#00A0E3"/>
<path fill-rule="evenodd" clip-rule="evenodd" d="M87.476 9.70605C87.476 9.90008 100.212 27.5595 100.997 28.0893C103.164 26.9319 104.943 26.7268 107.41 25.8799C108.165 25.6202 113.988 24.1771 114.494 24.1775L105.709 6.40344H103.25C100.991 6.40344 97.3651 7.51548 95.246 7.83413C94.1968 7.99045 87.476 9.23915 87.476 9.7073V9.70605Z" fill="#00A0E3"/>
<path fill-rule="evenodd" clip-rule="evenodd" d="M116.771 25.4042C116.771 25.556 117.859 27.4781 118 28.0892C119.136 28.0628 119.945 27.4697 120.254 27.4697L121.428 27.4056L120.254 24.577H119.639C118.73 24.577 116.771 24.5469 116.771 25.4042Z" fill="#00A0E3"/>
<path fill-rule="evenodd" clip-rule="evenodd" d="M189.906 25.6097C189.906 26.3354 192.366 27.7618 192.979 28.0892C193.422 27.8528 194.003 27.7289 194.003 27.0564V26.4352C193.313 26.2505 191.146 24.5778 191.135 24.5778C190.693 24.577 189.906 25.4077 189.906 25.6105V25.6097Z" fill="#00A0E3"/>
<path fill-rule="evenodd" clip-rule="evenodd" d="M225.222 82.4278C224.71 81.3875 223.907 78.5537 223.135 77.2027C222.202 75.568 221.396 73.8692 220.394 72.3247C218.39 69.2352 216.077 66.5032 213.909 63.5789C211.439 60.2473 209.506 58.4636 206.651 55.613C204.942 53.9069 199.485 49.5912 198.315 48.536C194.277 45.8089 190.527 42.5455 186.014 40.2748C183.796 39.1582 181.548 37.8245 179.256 36.7609C176.804 35.6232 174.455 34.7258 171.877 33.6674C169.023 32.4956 159.135 29.2335 155.698 29.118C153.881 29.0572 153.273 28.6391 151.187 28.5032C150.347 28.4476 147.613 28.2351 146.482 28.0825C144.826 27.8572 144.598 27.4641 141.969 27.4697C140.121 27.4729 138.85 27.2629 136.847 27.2629C127.387 27.2625 117.126 29.0687 110.187 31.571C108.237 32.2737 106.401 33.0643 104.542 33.7291C102.486 34.4633 101.06 35.41 99.216 36.2074C97.0682 37.1357 90.5121 41.7207 89.115 41.7207C86.2869 43.6299 87.6084 41.2253 85.1407 44.9428C84.7544 45.5243 82.3546 49.2397 82.3546 49.5687C82.3546 51.2058 87.3496 55.6824 87.476 57.2104C85.1979 57.2096 81.1567 54.9385 79.0765 54.9385C78.6341 54.9381 76.1549 59.0611 75.7932 59.6835C74.9069 61.2071 73.2941 63.2049 74.6708 65.9502L80.5104 56.5896C82.5208 56.5896 88.7705 59.4827 90.1393 59.4827C90.3212 59.4811 90.549 59.2531 90.549 59.0695C90.549 58.3859 84.608 51.7541 84.608 50.8079C84.608 49.7796 87.1672 46.3912 87.751 45.3023C88.8158 43.3137 90.3901 42.0205 92.1893 40.896C95.6879 38.7082 99.4731 36.4387 103.515 34.7583C110.572 31.8236 122 28.0893 131.726 28.0893L143.608 28.0885C144.155 28.0885 146.609 28.4075 147.462 28.541C148.464 28.6981 150.122 28.7854 151.311 28.9969C153.878 29.4551 156.37 29.7051 158.6 30.3231C163.69 31.7326 167.359 32.5224 172.018 34.3512C181.246 37.972 187.112 41.4201 194.697 46.5975C201.158 51.0079 208.164 57.2834 213.072 63.1842C215.796 66.4584 218.113 69.525 220.475 73.2761C221.616 75.0895 222.518 76.9984 223.498 78.9031C224.049 79.9739 225.677 84.9682 226.047 85.2772L225.222 82.4278Z" fill="#00A0E3"/>
<path fill-rule="evenodd" clip-rule="evenodd" d="M153.441 26.2297V27.4684C153.441 28.3061 155.939 28.5021 156.924 28.5021V26.8498C156.924 26.3864 156.761 26.396 156.514 26.0238C155.107 26.0225 154.935 25.6106 154.055 25.6106C153.583 25.6098 153.441 25.7544 153.441 26.2305V26.2297Z" fill="#00A0E3"/>
<path fill-rule="evenodd" clip-rule="evenodd" d="M111.65 26.0225L112.879 28.9139H114.108C114.418 28.9139 116.362 28.4226 116.362 28.0892C116.361 28.042 115.081 25.4927 115.048 25.4734C114.509 25.1597 112.081 25.9223 111.65 26.0237V26.0225Z" fill="#00A0E3"/>
<path fill-rule="evenodd" clip-rule="evenodd" d="M158.358 27.8812V28.5013C158.358 29.3749 161.84 30.3259 161.84 29.122L161.851 27.4175L158.562 26.8497C158.455 27.3117 158.358 27.325 158.358 27.8825V27.8812Z" fill="#00A0E3"/>
<path fill-rule="evenodd" clip-rule="evenodd" d="M106.528 27.4683C106.528 27.8127 107.936 30.3611 108.576 30.3611C109.126 30.3598 110.842 29.6766 111.445 29.5347C111.402 29.0138 110.175 26.6433 109.601 26.6433L109.396 26.6425C108.881 26.6425 106.528 27.1017 106.528 27.4696L106.528 27.4683Z" fill="#00A0E3"/>
<path fill-rule="evenodd" clip-rule="evenodd" d="M40.3578 28.5013C40.6932 28.8575 43.8183 30.9803 44.2504 30.9803L44.6597 30.98C45.0512 30.98 47.7327 28.7618 47.7327 28.0893C47.7327 27.765 44.4078 25.6106 43.8406 25.6106C43.3641 25.6098 40.6527 28.0584 40.3578 28.5021V28.5013Z" fill="#00A0E3"/>
<path fill-rule="evenodd" clip-rule="evenodd" d="M163.274 29.5344V29.7411C163.274 30.6237 165.543 30.9803 166.552 30.9803C166.659 30.5167 166.757 30.5058 166.757 29.948V29.5344C166.757 28.7023 164.996 28.2957 164.094 28.2957C163.464 28.2957 163.274 28.9008 163.274 29.5344Z" fill="#00A0E3"/>
<path fill-rule="evenodd" clip-rule="evenodd" d="M194.823 29.1212C195.106 29.661 197.034 31.3939 197.691 31.3939L197.895 31.3926C198.321 31.3926 198.92 30.7892 198.92 30.5676C198.92 29.9307 196.148 28.0892 196.052 28.0892C195.486 28.0884 195.062 28.7613 194.823 29.1212Z" fill="#00A0E3"/>
<path fill-rule="evenodd" clip-rule="evenodd" d="M101.816 29.3271V29.5343C101.816 30.0781 102.978 30.8351 103.25 32.0129H104.07C104.569 32.0129 106.324 31.1987 106.733 30.9802C106.595 30.3823 105.219 28.0892 104.684 28.0892L104.479 28.0884C103.969 28.0884 101.816 28.6599 101.816 29.3283V29.3271Z" fill="#00A0E3"/>
<path fill-rule="evenodd" clip-rule="evenodd" d="M166.757 15.2832L163.889 27.0556C164.415 27.8483 169.005 29.1071 170.239 29.5347C171.323 29.9098 175.904 32.0129 176.59 32.0129C177.306 32.0129 178.986 28.2174 179.389 27.3998C179.75 26.6676 182.121 22.7691 182.121 22.5126C182.121 21.5764 168.654 15.0773 167.576 15.0773C167.524 15.0761 166.823 15.258 166.757 15.2832Z" fill="#00A0E3"/>
<path fill-rule="evenodd" clip-rule="evenodd" d="M168.191 30.9799V31.3926C168.191 32.1216 170.43 32.6142 171.264 32.6326C171.434 32.2736 171.673 31.7168 171.673 31.1871C171.673 30.5358 169.358 29.8048 168.6 29.7411C168.387 30.1468 168.191 30.3503 168.191 30.9799Z" fill="#00A0E3"/>
<path fill-rule="evenodd" clip-rule="evenodd" d="M96.8993 31.1871C96.8993 31.5806 98.8925 34.0786 99.1533 34.0786C99.9652 34.077 101.405 33.1684 102.166 32.732L99.7676 29.7411C99.197 29.8738 96.8997 30.7166 96.8993 31.1871Z" fill="#00A0E3"/>
<path fill-rule="evenodd" clip-rule="evenodd" d="M172.698 33.2513L175.566 34.4913C176.062 34.1563 176.386 33.8866 176.386 33.0458C176.386 32.4347 174.386 31.807 173.722 31.807C172.944 31.8059 172.848 32.6045 172.698 33.2521L172.698 33.2513Z" fill="#00A0E3"/>
<path fill-rule="evenodd" clip-rule="evenodd" d="M68.4239 16.7294C68.6739 17.8097 76.1549 24.5478 77.492 25.7625C78.6468 26.8113 86.0294 34.6982 86.6565 34.6982L86.8611 34.6974C86.8663 34.6974 92.1038 31.8721 92.7361 31.5334C93.7874 30.9695 98.5841 28.8896 98.9481 28.5021C98.0074 26.7095 85.6275 10.3272 85.0174 10.3272L84.8127 10.326C82.7409 10.326 70.3896 15.6813 68.4239 16.7294Z" fill="#00A0E3"/>
<path fill-rule="evenodd" clip-rule="evenodd" d="M199.74 32.9119C200.083 33.1448 202.092 35.1114 202.198 35.1114C203.161 35.1101 203.255 34.646 203.588 34.123L203.017 33.4586L200.956 31.7698L199.74 32.9119Z" fill="#00A0E3"/>
<path fill-rule="evenodd" clip-rule="evenodd" d="M92.3928 33.4586C92.3928 33.9684 94.3649 36.3506 94.8509 36.3506L95.056 36.3501C95.3485 36.3501 97.3095 35.2224 97.3095 34.6982V34.4914C97.3095 34.067 95.4741 32.0131 95.056 32.0131C94.4066 32.0131 92.3928 32.8852 92.3928 33.4586Z" fill="#00A0E3"/>
<path fill-rule="evenodd" clip-rule="evenodd" d="M177.409 35.5245C178.071 35.6795 179.745 36.5567 180.073 36.5567C180.321 36.5556 180.948 35.6294 180.948 35.318L180.864 34.8668C180.299 34.7341 179.047 33.8721 178.844 33.8721L178.285 33.6453C177.774 33.7302 177.41 34.7065 177.409 35.5245Z" fill="#00A0E3"/>
<path fill-rule="evenodd" clip-rule="evenodd" d="M181.598 37.3159L184.375 38.8287C184.792 38.547 185.399 38.0674 185.399 37.3832C185.399 37.0494 183.118 35.9553 182.375 35.9653L181.598 37.3159Z" fill="#00A0E3"/>
<path fill-rule="evenodd" clip-rule="evenodd" d="M87.8858 35.9373C87.8858 37.1059 89.8527 37.7467 90.1393 38.8292L90.9584 38.8288C91.2755 38.8288 93.01 37.4807 93.2123 37.1764C93.0132 36.7973 90.987 34.2854 90.7537 34.2854C90.1448 34.2846 87.8858 35.5514 87.8858 35.9373Z" fill="#00A0E3"/>
<path fill-rule="evenodd" clip-rule="evenodd" d="M204.041 36.3501C204.041 37.1119 206.326 38.8292 206.705 38.8292C207.118 38.5462 207.196 38.4805 207.813 38.0761C207.004 37.1656 205.406 35.581 205.271 35.5245C204.961 35.5245 204.042 36.1 204.041 36.3501Z" fill="#00A0E3"/>
<path fill-rule="evenodd" clip-rule="evenodd" d="M178.434 32.6314C179.048 33.5567 182.891 35.3322 184.233 35.8744C185.161 36.2487 190.111 39.0356 190.111 39.0356C190.854 39.0343 196.692 32.9003 197.281 32.013C196.696 31.1318 185.152 23.3386 184.375 23.3386C183.274 23.3382 179.298 31.3325 178.434 32.6326V32.6314Z" fill="#00A0E3"/>
<path fill-rule="evenodd" clip-rule="evenodd" d="M30.9342 38.8287C30.9342 39.2984 32.537 39.847 33.1881 39.8615L33.1876 36.5557C32.2651 36.6334 30.9342 37.877 30.9342 38.8287Z" fill="#00A0E3"/>
<path fill-rule="evenodd" clip-rule="evenodd" d="M186.014 39.242C186.182 39.8771 187.986 40.8097 189.03 41.0069L189.692 39.6736C189.055 39.3265 187.263 38.2096 187.243 38.2096C186.8 38.2088 186.014 39.0388 186.014 39.242Z" fill="#00A0E3"/>
<path fill-rule="evenodd" clip-rule="evenodd" d="M83.7882 38.4144V39.4475C84.8176 39.8231 85.9538 41.7207 86.6565 41.7207C87.2825 41.7207 88.1779 40.5268 89.115 40.2748C89.09 39.1566 86.5591 36.9701 86.2467 36.9701C85.6204 36.9688 84.7253 38.1635 83.7885 38.4156L83.7882 38.4144Z" fill="#00A0E3"/>
<path fill-rule="evenodd" clip-rule="evenodd" d="M208.078 40.1688C208.724 40.9588 210.129 42.1871 210.867 42.8095C211.093 42.8087 211.824 42.3426 212.025 42.1558L209.352 39.4191L208.078 40.1688Z" fill="#00A0E3"/>
<path fill-rule="evenodd" clip-rule="evenodd" d="M79.6913 41.9263C79.6913 42.5627 81.0518 43.3217 81.5351 43.579C82.0688 43.4539 83.7513 42.753 83.7886 42.753L84.3648 42.7385L84.6661 42.0693L82.5593 39.8604C81.8769 39.9184 79.6913 41.6585 79.6913 41.9271V41.9263Z" fill="#00A0E3"/>
<path fill-rule="evenodd" clip-rule="evenodd" d="M190.111 41.907C190.877 42.3763 192.139 43.4944 192.802 43.6075C193.062 43.6075 193.583 42.8191 193.762 42.6115C192.841 41.6053 192.292 41.0922 191.219 40.4972C190.786 40.6106 190.39 41.3275 190.111 41.907Z" fill="#00A0E3"/>
<path fill-rule="evenodd" clip-rule="evenodd" d="M51.4202 27.6756C52.093 28.6876 59.9743 33.7051 61.7198 35.0545C62.6849 35.8003 71.7469 42.5467 71.9067 42.5467C72.9757 42.5462 72.3164 41.152 72.3164 40.0679V37.796C73.9777 37.9343 77.0487 44.6117 78.4621 44.6117C79.0097 44.6106 79.0682 44.314 79.2815 43.9922C78.9246 43.4539 77.6426 42.5867 77.6426 41.9271C77.6426 40.8486 84.2984 36.8134 85.0174 35.731C84.0039 34.2041 66.7947 17.9689 66.3751 17.9689C64.7845 17.9681 52.2592 26.4133 51.4202 27.6756Z" fill="#00A0E3"/>
<path fill-rule="evenodd" clip-rule="evenodd" d="M27.0416 44.8176C27.9108 45.0517 28.7259 45.8508 29.7053 45.8508L30.9342 45.8505C31.8351 45.8505 33.3926 45.0898 33.3926 44.1989L33.3923 43.1662C33.3923 42.2183 30.3897 40.8943 29.5001 40.8943C28.7938 40.893 27.042 43.5673 27.042 44.8185L27.0416 44.8176Z" fill="#00A0E3"/>
<path fill-rule="evenodd" clip-rule="evenodd" d="M194.003 44.405C194.318 45.0041 195.723 46.1226 196.49 46.4056C196.83 46.1787 197.242 45.5447 197.458 45.1015C196.753 44.7056 195.388 43.3726 195.242 43.3726C194.563 43.3718 194.283 43.985 194.003 44.4053V44.405Z" fill="#00A0E3"/>
<path fill-rule="evenodd" clip-rule="evenodd" d="M212.891 43.3942L211.917 44.0053C212.258 44.7435 213.814 46.7088 214.222 46.7088C214.847 46.708 215.07 46.3738 215.388 46.09L212.891 43.3942Z" fill="#00A0E3"/>
<path fill-rule="evenodd" clip-rule="evenodd" d="M24.9514 47.6988C25.5568 47.6972 26.4275 47.5656 26.4275 47.0904C26.4275 46.8002 26.1481 46.6776 25.8127 46.6776L25.205 46.678L24.9514 47.6988Z" fill="#00A0E3"/>
<path fill-rule="evenodd" clip-rule="evenodd" d="M199.944 46.4704C200.137 46.6007 200.421 46.8668 200.725 47.1193L200.725 47.1196L200.757 47.1456V47.1461L200.788 47.1718L200.82 47.1978L200.852 47.223L200.884 47.2482L200.916 47.2736L200.948 47.298L200.98 47.3224L201.044 47.3701L201.076 47.393V47.3934L201.107 47.4155V47.4158L201.14 47.4375V47.4378L201.171 47.4591L201.203 47.48L201.235 47.5C201.339 47.5661 201.442 47.6206 201.54 47.6574V47.6579L201.569 47.6683L201.598 47.6775L201.626 47.6859L201.654 47.6931L201.682 47.6991L201.709 47.7035V47.704L201.736 47.7072L201.762 47.7091L201.788 47.7099C201.819 47.7096 202.267 47.4623 202.855 47.1285V47.128L202.937 47.0819L203.019 47.0351L203.103 46.987L203.189 46.9384L203.275 46.8888L203.363 46.8392V46.8387L203.451 46.7883L203.54 46.7374V46.7369L203.629 46.686V46.6856L203.719 46.6343L203.809 46.5822L203.899 46.5305L203.989 46.4788V46.4785L204.078 46.4271V46.4268L204.167 46.3754L204.256 46.3241C204.931 45.9318 205.54 45.5723 205.765 45.4296L205.792 45.412L205.814 45.3972L205.833 45.3852L205.864 45.3639L205.899 45.3406L205.938 45.3162L205.98 45.2902L206.025 45.2625L206.074 45.2336L206.126 45.2032C206.287 45.1103 206.488 44.9993 206.713 44.877L206.788 44.8361H206.788L206.865 44.7944L206.944 44.7515L207.024 44.7082L207.105 44.6646L207.188 44.6201H207.188L207.271 44.5752L207.355 44.5295L207.44 44.4839H207.44L207.525 44.4377L207.61 44.3913H207.611L207.696 44.3448L207.697 44.3444C208.612 43.8454 209.544 43.3148 209.74 43.0472C209.746 43.0387 209.751 43.0311 209.756 43.0231C209.761 43.0151 209.765 43.0075 209.768 43.0002C209.771 42.9931 209.774 42.9858 209.775 42.979C209.777 42.9722 209.778 42.9658 209.778 42.9598C209.778 42.9373 209.775 42.9141 209.771 42.8892C209.767 42.8648 209.76 42.8387 209.752 42.8119C209.743 42.7851 209.733 42.757 209.72 42.7277C209.707 42.6985 209.693 42.668 209.676 42.6372V42.6367C209.66 42.6055 209.641 42.5734 209.621 42.5402V42.5398C208.422 40.5712 200.701 35.0636 199.534 33.4585L198.783 33.1023L191.749 39.8619L199.944 46.4704ZM209.768 43.0002C209.771 42.9931 209.774 42.9858 209.775 42.979L209.768 43.0002ZM209.771 42.8892C209.767 42.8648 209.76 42.8387 209.752 42.8119L209.771 42.8892Z" fill="#00A0E3"/>
<path fill-rule="evenodd" clip-rule="evenodd" d="M199.833 48.9491C200.229 48.6649 200.66 48.2037 200.969 48.1516C200.689 47.6855 199.152 46.3206 198.808 46.1226C198.441 46.3482 197.644 46.8723 197.503 47.1469C198.169 47.6928 198.703 48.4068 199.833 48.9491Z" fill="#00A0E3"/>
<path fill-rule="evenodd" clip-rule="evenodd" d="M215.243 48.0318C215.649 48.8835 217.172 50.4123 217.608 50.9482C218.023 50.7486 218.826 50.4164 218.79 50.1246C218.745 49.7636 216.658 47.4371 216.445 47.4371C216.122 47.4363 215.491 47.9349 215.243 48.0318Z" fill="#00A0E3"/>
<path fill-rule="evenodd" clip-rule="evenodd" d="M201.173 49.9807C201.411 50.3386 202.775 51.6342 203.222 51.6342L203.632 51.6338C204.179 51.6338 204.238 51.3361 204.451 51.0147C204.223 50.6708 202.68 49.1555 202.403 49.1555C201.77 49.1552 201.427 49.6008 201.173 49.9815L201.173 49.9807Z" fill="#00A0E3"/>
<path fill-rule="evenodd" clip-rule="evenodd" d="M73.9547 47.0892C73.9547 48.532 69.22 48.6799 68.3647 49.9619L74.3199 52.0483L74.5699 58.2428C76.2379 58.1025 77.0043 53.2862 78.6671 53.2862L78.8714 53.2854C80.0435 53.2854 81.8832 54.5257 83.5835 54.5257C83.4719 53.1752 80.5109 50.7061 80.5109 49.9815C80.5105 48.8811 83.248 46.196 83.3788 44.6117C81.8788 44.6445 79.1023 46.264 78.0523 46.264L77.8472 46.2632C76.9967 46.2632 75.2499 42.4822 73.9551 42.1331L73.9547 47.0892Z" fill="#009846"/>
<path fill-rule="evenodd" clip-rule="evenodd" d="M204.591 52.786C204.932 53.2882 206.052 54.6387 206.64 54.6387L207.804 53.9049L205.642 51.9945L204.591 52.786Z" fill="#00A0E3"/>
<path fill-rule="evenodd" clip-rule="evenodd" d="M220.646 54.6515L221.544 54.242C221.716 54.1578 219.956 51.3296 219.684 51.3296C219.329 51.3609 219.155 51.7148 218.661 51.9725C219.02 52.7235 220.281 54.389 220.646 54.6515Z" fill="#00A0E3"/>
<path fill-rule="evenodd" clip-rule="evenodd" d="M34.8918 41.9174L34.8147 46.0219L26.4121 48.9031L26.3588 49.1759L34.8267 51.6338C36.1779 53.6684 34.9073 59.1517 35.8509 61.1346C37.2029 60.7703 40.0442 53.9061 41.1773 53.9061C43.2154 53.9053 46.7205 55.9255 48.7574 55.9712C48.638 54.5297 44.0457 50.0067 44.0457 49.3622C44.0452 48.0102 48.2096 43.1834 48.3476 41.5138C46.5845 41.6609 41.4861 44.199 40.3579 44.199C39.0701 44.1977 36.2685 37.9515 34.3517 37.8048L34.8918 41.9174Z" fill="#AE4A84"/>
<path fill-rule="evenodd" clip-rule="evenodd" d="M219.087 53.3903C217.916 52.2598 211.995 44.4053 211.212 44.4053C210.498 44.4049 207.662 45.9888 206.841 46.4011C204.655 47.4972 203.351 48.2658 202.845 48.8013C203.136 49.1271 205.22 50.6772 207.47 52.9283C207.877 53.3342 211.585 57.004 211.621 57.004C212.311 57.004 219.732 55.0162 219.958 54.7021L219.087 53.3903Z" fill="#00A0E3"/>
<path fill-rule="evenodd" clip-rule="evenodd" d="M203.222 33.2514C205.058 34.4913 214.537 44.1489 215.486 45.4136C216.364 46.3274 220.527 51.4326 221.715 53.5106C223.077 55.312 227.245 62.2756 228.527 64.7443C229.461 66.5417 230.654 69.0368 231.412 70.924C231.971 72.3174 233.266 76.1679 233.677 77.2099C233.963 78.284 234.444 79.832 234.652 81.2054L235.385 87.7767V88.3967H236V85.0924C236 83.0369 234.153 76.7666 233.584 74.9295C232.676 71.9984 231.129 68.6701 229.854 66.0913C227.166 60.653 223.634 55.241 220.147 50.4741C214.042 42.1242 203.293 31.3137 194.738 25.4895C192.236 23.7854 189.961 21.9503 187.313 20.3766C184.696 18.8205 181.949 17.3818 179.376 15.7799C177.494 14.6085 173.082 12.5193 170.9 11.7258C169.677 11.2801 167.805 10.4357 166.432 9.82865C164.905 9.15329 163.052 8.82555 161.701 8.19552C159.178 7.01725 155.126 6.00098 152.086 5.29006C148.574 4.4685 145.384 3.59366 141.846 2.80935C139.46 2.28031 133.514 1.01548 131.114 1.02991C128.917 1.04354 127.591 0.404761 125.375 0.413167C122.892 0.422028 121.579 0.000454404 119.434 0.000454404L110.42 0C109.781 0 108.194 0.414757 106.528 0.413167C105.002 0.411236 103.919 0.49371 102.549 0.738975C99.9375 1.20712 97.2608 1.17543 94.7661 1.77377C91.4149 2.57693 82.2995 3.61081 80.3055 4.95698C77.0183 4.95585 62.1008 11.2413 59.1359 12.7357C53.0435 15.8068 46.2099 19.6768 41.3293 23.9053C35.9695 28.5473 30.928 32.4812 26.8411 38.4204C24.708 41.519 23.0959 43.7866 21.0178 47.213C20.1251 48.6842 16.4253 55.5677 16.3887 57.2104C17.343 56.9531 18.7388 52.6068 19.3235 51.4943C20.3402 49.5591 21.2554 47.7056 22.3711 45.8925C24.8352 41.8857 26.9869 39.4399 29.6231 35.8551C33.8833 30.0602 41.9474 23.8544 48.0605 19.7455C51.5623 17.3897 55.1595 15.3551 59 13.4247C63.026 11.4008 66.814 10.1212 71.1493 8.32423C73.9723 7.15437 81.2709 4.80714 84.4028 4.3374C86.5927 4.00796 89.1824 3.19208 91.5265 2.84457C93.8551 2.49956 96.5975 2.23862 99.1383 1.84465C120.712 -1.50408 142.588 2.7797 159.503 7.93299C167.102 10.247 177.246 14.794 183.35 18.5884C187.006 20.8607 190.224 23.0893 193.757 25.4462C195.431 26.5623 202.368 31.9662 203.222 33.2522L203.222 33.2514Z" fill="#00A0E3"/>
<path fill-rule="evenodd" clip-rule="evenodd" d="M207.813 55.728C207.962 56.2883 209.168 57.709 209.778 57.709L209.982 57.6224C210.505 57.3398 210.913 57.0633 210.809 56.9069C210.379 56.2585 209.483 55.0038 209.051 55.0038C208.456 55.0872 208.269 55.3873 207.813 55.728Z" fill="#00A0E3"/>
<path fill-rule="evenodd" clip-rule="evenodd" d="M9.01385 51.4266V51.6339C9.01385 52.1108 13.5622 58.2432 14.3403 58.2432C14.522 58.2428 14.7501 58.0136 14.7501 57.83C14.7497 57.2141 9.87593 50.9846 9.2189 50.8079C9.0783 51.0599 9.01385 51.0287 9.01385 51.4274V51.4266Z" fill="#00A0E3"/>
<path fill-rule="evenodd" clip-rule="evenodd" d="M221.66 55.9712C221.88 56.6285 222.877 58.4752 223.34 58.7821L224.246 58.3192C224.044 57.7358 222.849 55.6178 222.635 55.5339C222.583 55.5328 221.726 55.9455 221.66 55.9712Z" fill="#00A0E3"/>
<path fill-rule="evenodd" clip-rule="evenodd" d="M67.1946 57.004V57.4168C67.1946 58.0816 70.2454 59.762 70.8825 60.1019C71.4492 59.7989 72.5212 58.5962 72.5212 57.83V57.004C71.5498 56.7414 69.6992 54.9385 68.8337 54.9385C68.1724 54.938 67.1946 56.5764 67.1946 57.004Z" fill="#00A0E3"/>
<path fill-rule="evenodd" clip-rule="evenodd" d="M211.212 58.4484C210.876 58.4484 210.597 58.5734 210.597 58.8628C210.597 59.0564 212.133 60.7203 212.441 60.9279L213.631 60.243C213.34 59.8106 212.539 58.4496 211.826 58.4496L211.212 58.4484Z" fill="#00A0E3"/>
<path fill-rule="evenodd" clip-rule="evenodd" d="M21.3058 49.7751C21.4091 51.0271 24.42 51.3637 25.5687 51.6739C26.9883 52.0554 28.8261 52.729 30.3197 53.0802C30.2831 54.7292 28.0662 57.9406 28.0662 58.8627C28.0658 59.8466 32.2008 60.798 33.223 61.1222C34.5572 61.5438 34.3377 60.5118 34.2138 58.8615C34.1236 57.6613 34.0075 56.6682 34.0075 55.1449L34.0071 53.0797C32.2917 52.6173 23.4757 49.5687 22.535 49.5687L22.33 49.5679C22.0068 49.5679 21.5537 49.6781 21.3058 49.7751Z" fill="#00A0E3"/>
<path fill-rule="evenodd" clip-rule="evenodd" d="M226.826 62.619C226.618 61.7935 225.552 60.0009 225.249 59.78C224.923 59.9271 224.427 60.1339 224.219 60.3892C224.395 61.0585 225.395 62.3189 225.842 62.9472C226.029 63.2109 226.617 62.7389 226.826 62.619Z" fill="#00A0E3"/>
<path fill-rule="evenodd" clip-rule="evenodd" d="M215.923 63.2001C215.923 63.1015 214.852 61.5483 214.285 61.5483L214.08 61.547C213.439 61.547 213.499 61.9185 213.261 62.3741L214.714 64.0093C215.372 63.6979 215.924 64.0273 215.923 63.2001Z" fill="#00A0E3"/>
<path fill-rule="evenodd" clip-rule="evenodd" d="M64.7364 62.373C65.7817 62.6186 68.2455 64.4393 68.8337 64.4393C69.2439 64.4385 70.2676 62.3785 70.2676 61.9609C70.2676 61.131 66.7964 59.2759 66.3751 59.2759C65.4919 59.2755 64.7364 61.3201 64.7364 62.3741V62.373Z" fill="#00A0E3"/>
<path fill-rule="evenodd" clip-rule="evenodd" d="M219.045 66.6731L224.115 66.6302L227.507 66.5921C226.354 64.1924 221.729 58.0824 220.984 56.178C218.629 56.5968 215.438 57.3154 212.587 58.2872L219.045 66.6731Z" fill="#00A0E3"/>
<path fill-rule="evenodd" clip-rule="evenodd" d="M227.361 63.5457C227.073 63.5457 226.576 63.7545 226.42 63.9877C226.42 63.9989 227.338 65.8268 227.532 66.1105L228.729 66.0681C228.432 64.9456 227.72 64.1452 227.361 63.5457Z" fill="#00A0E3"/>
<path fill-rule="evenodd" clip-rule="evenodd" d="M0.000106812 63.6129C0.114232 64.9948 3.39659 65.3044 4.53367 65.6519C5.38584 65.9124 6.31742 66.35 6.97525 66.4947C8.32368 66.7921 8.9779 67.5343 9.01406 65.8848C8.01927 65.6159 1.68967 63.4065 1.22934 63.4065C0.52195 63.4057 0.790982 63.5299 0.000106812 63.6129H0.000106812Z" fill="#00A0E3"/>
<path fill-rule="evenodd" clip-rule="evenodd" d="M217.153 67.1228L218.582 66.6924L217.048 64.7279C216.589 64.6578 215.719 64.79 215.719 65.2653C215.718 65.3763 216.991 66.8807 217.153 67.1244V67.1228Z" fill="#00A0E3"/>
<path fill-rule="evenodd" clip-rule="evenodd" d="M10.0383 60.5142C10.0383 62.1148 5.77136 61.5209 5.3187 63.2289L9.99692 64.4805L10.448 64.8516C10.448 66.1228 9.91231 71.2285 11.3661 69.9308C11.6932 69.6386 13.5242 66.4971 13.9336 65.8759L18.6425 67.3303C18.5149 65.7862 15.9796 63.9603 15.9796 62.9937L15.9792 62.7869C15.9792 61.9005 18.1953 60.1511 18.2081 58.3701L13.3657 59.8537L10.0383 55.9712V60.5142Z" fill="#393185"/>
<path fill-rule="evenodd" clip-rule="evenodd" d="M217.954 68.1715L219.5 70.1472L220.601 69.8427C220.281 69.0368 219.735 67.8874 219.184 67.6978C218.761 67.8766 218.342 67.9459 217.954 68.1715Z" fill="#00A0E3"/>
<path fill-rule="evenodd" clip-rule="evenodd" d="M228.795 68.089L229.719 70.7549C230.166 70.7212 230.703 70.625 230.69 70.4186C230.666 70.0424 230.066 68.8978 229.844 68.061L228.795 68.089Z" fill="#00A0E3"/>
<path fill-rule="evenodd" clip-rule="evenodd" d="M221.52 70.7949C221.088 70.7949 220.834 71.0169 220.431 71.2546C220.683 71.8256 221.332 73.0464 221.677 73.3834C222.115 73.2981 222.314 73.157 222.684 72.9073C222.376 72.3202 221.682 71.1412 221.52 70.7949Z" fill="#00A0E3"/>
<path fill-rule="evenodd" clip-rule="evenodd" d="M231.288 71.8733C230.714 71.8861 230.179 71.9871 230.172 72.1222C230.155 72.4071 230.602 73.7769 230.938 74.4161L231.947 74.1837L231.288 71.8733Z" fill="#00A0E3"/>
<path fill-rule="evenodd" clip-rule="evenodd" d="M222.295 74.6186C222.295 74.7052 222.982 75.9992 223.093 76.2115L223.503 76.2107H224.118L223.469 74.3669C223.128 74.3581 222.462 74.4807 222.295 74.6186Z" fill="#00A0E3"/>
<path fill-rule="evenodd" clip-rule="evenodd" d="M220.226 67.7427C220.294 68.2843 223.45 73.4312 224.049 74.6287C225.309 77.1434 224.068 76.4777 227.135 77.0195C228.529 77.2652 230.042 77.5947 231.41 77.8263L228.224 67.9472L220.842 67.6385L220.226 67.7427Z" fill="#00A0E3"/>
<path fill-rule="evenodd" clip-rule="evenodd" d="M232.36 75.3291L231.288 75.5921C231.381 76.3254 232.046 78.1025 232.202 78.1445L233.316 78.0078L232.36 75.3291Z" fill="#00A0E3"/>
<path fill-rule="evenodd" clip-rule="evenodd" d="M70.4723 66.5044H69.8579C69.144 68.004 68.2255 69.2231 67.3933 70.6286C66.8377 71.5676 66.7332 71.8168 66.4235 72.9558C65.9625 74.6498 64.9415 73.4988 64.9415 74.766C64.9411 75.483 65.2078 75.101 65.5182 75.6304C65.7483 76.0228 65.6974 76.4452 65.8933 76.904C66.1584 77.5264 66.8075 78.4169 67.6044 78.4839C67.6044 75.9302 69.6381 68.2585 70.4723 66.5044Z" fill="#00A0E3"/>
<path fill-rule="evenodd" clip-rule="evenodd" d="M15.0645 77.4388L21.1004 78.6895C21.5221 77.886 21.7153 77.0339 21.7153 75.7988L21.7148 74.3521C21.7148 73.4532 16.8533 72.9073 15.5915 72.8856L15.0645 77.4388Z" fill="#00A0E3"/>
<path fill-rule="evenodd" clip-rule="evenodd" d="M54.0846 68.9831L54.0839 71.6674C54.0839 72.8661 48.7574 73.3273 48.7574 74.1465C48.7569 74.9436 50.6778 75.0105 51.5378 75.2674C52.5402 75.5664 53.5071 75.9799 54.4782 76.2124L54.903 82.4065C56.3234 82.0249 57.9069 77.6576 58.5908 77.6576C60.2073 77.6563 62.4727 79.071 63.917 79.1035C63.7977 77.6607 60.8439 75.4313 60.8439 74.3532V73.9388C60.8439 72.9286 63.469 70.718 63.5072 68.9831C62.6499 69.0548 58.4919 70.8422 58.3858 70.8422C57.1155 70.8418 55.5412 66.8972 53.9277 66.5148L54.0846 68.9831Z" fill="#FEFEFE"/>
<path fill-rule="evenodd" clip-rule="evenodd" d="M23.7639 79.1018C24.2205 78.98 24.3787 79.0549 24.3787 78.4839L24.426 77.859L24.1741 75.1792H23.7639V79.1018Z" fill="#00A0E3"/>
<path fill-rule="evenodd" clip-rule="evenodd" d="M225.555 79.3167C225.312 78.8045 225.092 77.894 224.916 77.6147C224.739 77.3353 224.606 77.6868 223.842 77.6836L224.564 79.7087L225.555 79.3167Z" fill="#00A0E3"/>
<path fill-rule="evenodd" clip-rule="evenodd" d="M234.317 81.746L233.817 79.2173L232.809 79.3199L233.311 81.7833L234.317 81.746Z" fill="#00A0E3"/>
<path fill-rule="evenodd" clip-rule="evenodd" d="M225.698 82.6559L226.607 82.6062C226.483 81.9574 226.098 80.4862 225.927 80.2966L224.937 80.5479L225.698 82.6559Z" fill="#00A0E3"/>
<path fill-rule="evenodd" clip-rule="evenodd" d="M234.771 85.0019C234.771 84.3374 234.683 83.2229 234.601 83.0521C234.524 82.891 233.936 83.0485 233.555 83.0165L233.714 84.0592C233.714 84.5366 233.828 85.2463 233.995 85.2463C234.23 85.1866 234.771 85.318 234.771 85.0019Z" fill="#00A0E3"/>
<path fill-rule="evenodd" clip-rule="evenodd" d="M226.62 85.6686L227.395 85.5052C227.242 84.9316 227.113 84.1966 226.986 83.6472C226.369 83.6604 226.172 83.68 226.012 83.7506C226.044 83.9209 226.329 84.8799 226.62 85.6686Z" fill="#00A0E3"/>
<path fill-rule="evenodd" clip-rule="evenodd" d="M226.576 81.1682L227.831 86.0402L233.746 87.7767L232.05 79.2762C229.696 78.5837 227.928 78.2054 225.347 77.6576L226.576 81.1682Z" fill="#00A0E3"/>
<path fill-rule="evenodd" clip-rule="evenodd" d="M234.158 87.9766L235.18 88.1895L235.007 86.6702C235.009 86.554 234.859 86.5604 233.95 86.4843L234.158 87.9766Z" fill="#00A0E3"/>
<path fill-rule="evenodd" clip-rule="evenodd" d="M59.8197 87.1583C59.8197 88.1209 63.957 89.5541 64.9415 89.637L64.9411 86.538C64.9411 85.675 60.8738 84.2905 59.8197 84.2668V87.1583Z" fill="#00A0E3"/>
<path fill-rule="evenodd" clip-rule="evenodd" d="M70.4723 66.5045C69.6377 68.2573 67.6045 75.9308 67.6045 78.4839C66.8072 78.4166 66.1589 77.5265 65.8934 76.9041C65.6974 76.4445 65.7487 76.0237 65.5182 75.6305C65.2074 75.1003 64.9415 75.4843 64.9415 74.7661C64.9412 73.4977 65.9625 74.6503 66.4235 72.9559C66.7332 71.8165 66.8377 71.568 67.3933 70.6287C68.2252 69.2232 69.1441 68.0049 69.8579 66.5048L68.6286 66.2973C67.9013 65.8071 65.0409 63.8194 64.1217 63.8194C63.7203 63.8185 62.8928 65.9618 62.8928 66.5048C62.8923 66.9024 63.258 67.3308 63.5072 67.3308C64.3322 67.3304 65.55 66.5048 66.3751 66.5048L66.99 66.5045C66.5933 68.0008 62.483 73.2492 62.483 74.1465C62.483 75.3865 67.6784 80.1996 67.809 81.7886C66.1907 81.4079 60.2425 79.3103 59.41 79.3103C58.8078 79.3095 54.4933 86.3004 54.4933 86.7453V90.2554C56.2165 89.7921 55.7293 87.3295 57.7713 87.1584L57.7709 86.3312C57.7709 85.4948 59.613 82.6141 60.0244 82.6141C61.2323 82.6138 63.3577 84.0605 64.5317 84.0605C65.3426 84.0593 64.5401 82.4077 65.3509 82.4077C66.1172 82.4066 66.5428 82.726 66.9061 83.0314L67.3997 89.8427C68.065 89.3506 68.0241 87.2401 68.013 86.1244C67.9931 84.1639 68.8337 83.1981 68.8337 82.6141C68.8332 81.785 68.0142 80.4201 68.0142 79.1035C68.0142 77.8307 69.6412 70.5578 70.0602 69.5999C70.3868 68.8505 73.3342 61.418 73.3407 61.3414C72.2302 61.6392 71.0387 65.3154 70.4723 66.5045Z" fill="#00A0E3"/>
<path fill-rule="evenodd" clip-rule="evenodd" d="M8.39883 95.4183C8.83089 96.0118 24.9741 100.683 25.608 100.376C25.2404 98.9895 19.5951 97.881 17.8655 97.4421C15.8941 96.9416 11.4675 95.0068 9.42382 95.0068L9.01407 95.006C8.64364 95.006 8.45212 95.1097 8.39962 95.4195L8.39883 95.4183Z" fill="#00A0E3"/>
<path fill-rule="evenodd" clip-rule="evenodd" d="M26.2548 89.841L13.7255 93.9727C13.8125 95.0307 15.5072 95.1206 16.5882 95.4255C17.5767 95.7032 19.3342 96.2779 20.0861 96.4427C22.5069 96.9716 24.6595 97.9583 27.0418 98.5178L26.9551 101.415L27.6562 111.322V112.561C29.1387 112.163 34.4409 101.409 35.4409 101.409L35.8507 101.409C38.5346 101.409 44.5963 104.653 47.3232 104.714C46.8578 102.957 39.7432 95.1883 39.7432 94.3867C39.7432 93.5391 46.0517 85.1893 46.5036 83.234L45.8888 83.2336C44.0558 83.2336 35.8224 87.1583 34.4171 87.1583C33.3377 87.1583 27.2862 77.5861 25.8828 77.2483L26.2548 89.841Z" fill="#E31E24"/>
<path fill-rule="evenodd" clip-rule="evenodd" d="M39.538 39.0344C38.916 38.7038 35.9282 35.0199 35.8507 34.0786C36.8414 34.3111 39.3215 35.9373 39.7432 35.9373C40.7026 35.9373 42.7919 33.5155 42.8162 32.4266C41.8301 32.1606 39.3203 30.3611 38.7185 30.3611C38.0354 30.3599 35.5851 32.9148 35.4409 33.4586H34.8265L34.9556 33.2902L33.8018 32.6315V33.2514C33.8018 34.2694 39.8756 41.9447 40.7654 42.5402L51.625 38.8287C51.5869 40.5537 45.6841 48.2927 45.6841 48.9491C45.6837 49.9002 52.5336 57.2521 52.6492 58.6563C49.6303 58.4019 44.1274 55.5584 41.7919 55.5584C40.6672 55.5584 36.0697 65.44 34.4171 65.8849L34.4166 64.2313C34.4166 63.3148 28.5755 61.5483 27.6562 61.5483C25.996 61.547 25.7394 69.0973 24.3785 70.0159C24.2489 69.7685 22.6763 67.1477 22.5761 67.0827C21.5603 66.4239 20.784 65.7281 20.5015 64.37L23.7637 65.0584C24.014 64.1106 24.9934 62.0415 24.9934 61.1346C24.9926 60.0149 22.5348 60.6148 22.5348 59.6891C22.5344 59.0042 23.142 58.5245 23.5693 58.1902L25.6074 58.6555C26.1913 58.1442 27.5795 55.4571 27.6562 54.5257C26.2874 54.1554 23.7041 52.8733 22.3301 52.8733C21.6795 52.8722 20.9136 54.9729 20.8957 55.7648L21.7148 55.764C21.6802 57.335 17.8231 61.5374 17.8231 62.5806L17.8228 62.9929C17.8228 64.1928 22.1242 68.033 22.4982 69.9361L14.3403 67.7427C13.9131 69.3558 10.2431 73.4789 10.2431 74.9728L10.2427 77.2436C10.2427 77.7966 10.5388 77.8551 10.858 78.0707C11.4112 75.6726 12.4966 78.853 12.4966 75.1793C12.8194 74.6916 15.6245 70.2223 15.7744 70.2223C16.3216 70.2218 16.3804 70.52 16.6196 70.7123L21.7148 71.8733C22.137 71.5884 22.247 71.2546 22.7398 71.2546C24.4695 71.2546 27.9718 76.743 29.0051 78.1568C29.8636 79.3303 34.1095 85.0512 35.0315 85.2992C35.0343 85.2949 35.2362 84.9141 35.2362 84.8865C35.2362 83.8745 33.1087 82.4887 32.9827 80.9622C35.4611 81.1694 39.7185 82.821 41.5869 82.821C43.6293 82.821 48.2468 80.1795 50.1911 80.1362C50.0392 81.9745 41.7919 92.8599 41.7919 94.3868C41.7916 95.9434 51.3791 105.743 51.3945 107.69L36.2604 103.06C35.3888 103.649 27.0417 116.637 27.0417 117.725L26.9957 118.351L27.246 120.204C29.0067 119.73 36.7822 104.714 37.8994 104.714L38.3092 104.713C38.9769 104.713 44.9329 106.838 46.1396 107.146C48.052 107.635 52.6552 109.428 54.2883 109.464C53.8622 107.618 43.8404 96.2728 43.8404 95.4196C43.8404 94.3039 49.126 86.7319 49.986 85.0929C50.7475 85.1565 52.7602 85.9192 53.059 85.9192C53.9811 85.918 53.2649 82.0058 53.2561 81.383C53.2267 79.3227 53.7717 77.6046 52.2236 77.0543C51.0253 76.628 45.0959 74.7897 44.0455 74.7661C44.0785 73.246 46.983 72.9927 48.2197 72.5723C49.1542 72.2549 52.6492 71.5066 52.6492 70.6354C52.6492 69.6552 47.1999 68.0293 46.0303 67.6017C43.9135 66.8262 40.7861 65.5446 38.7185 65.0589V64.4385C38.7185 63.9572 39.2654 63.4065 39.7432 63.4065C41.521 63.4058 50.509 67.9504 52.0348 67.9504C53.0901 67.9504 52.4445 66.8811 52.4445 65.8849L52.4442 61.9598C53.7155 62.3028 57.721 68.9831 58.3855 68.9831C60.8886 68.9831 60.8981 66.1822 61.7451 64.1087C62.0241 63.4238 64.3265 58.4504 64.3265 58.4496C64.3265 56.9964 48.552 50.2184 48.552 49.3623C48.5516 48.8838 48.7809 48.1232 49.1669 48.1232C50.8063 48.122 64.6448 56.5908 64.9412 56.5908C66.0712 56.5896 67.1272 52.667 68.219 52.667L68.4237 52.6666C69.1399 52.6666 71.761 55.3517 72.726 55.3517C73.414 55.3509 72.9307 53.9045 72.9668 52.9612L63.7116 50.1879L63.7216 49.598L72.5209 46.6764V45.4377C72.5209 44.5212 50.7431 29.3284 49.7813 29.3284L49.5763 29.3271C48.1057 29.3271 40.9867 38.2625 39.538 39.0356V39.0344Z" fill="#00A0E3"/>
<path fill-rule="evenodd" clip-rule="evenodd" d="M75.7491 81.0921C75.7491 87.3387 78.0555 91.2144 80.4067 93.5397C82.4412 95.5455 86.0587 97.9697 92.0275 97.9697C97.9959 97.9689 101.613 95.5459 103.648 93.5397C106 91.2136 108.305 87.3387 108.305 81.0925C108.305 74.8455 106 70.9705 103.648 68.6453C101.613 66.6387 97.9962 64.2222 92.0275 64.2222C86.0587 64.2209 82.4417 66.6391 80.4067 68.6453C78.055 70.9702 75.7495 74.8459 75.7491 81.0921ZM85.064 80.9547C85.064 77.7639 85.6069 75.5752 86.5564 74.0708C87.1891 73.1134 88.8173 71.1072 92.0275 71.1072C95.2376 71.1072 96.8659 73.1134 97.4986 74.0708C98.4481 75.5741 98.991 77.7639 98.991 80.9555C98.9907 84.1924 98.4481 86.3813 97.4986 87.8858C96.8656 88.8428 95.238 90.8494 92.0275 90.8494C88.817 90.849 87.1894 88.8436 86.5564 87.8858C85.6069 86.3802 85.064 84.1928 85.064 80.9555V80.9547Z" fill="#F6DA0A"/>
<path fill-rule="evenodd" clip-rule="evenodd" d="M112.375 65.1331V97.049H121.328V87.2016H124.448C127.975 87.2016 131.863 86.974 134.848 84.9678C138.374 82.5957 139.053 79.1772 139.053 76.1683C139.053 73.1582 138.375 69.7393 134.848 67.3685C131.863 65.3611 127.975 65.1342 124.448 65.1342L112.375 65.1331ZM121.328 71.5168H124.719C125.759 71.5168 127.523 71.6084 128.653 72.5206C129.919 73.5233 130.055 75.1652 130.055 76.0766C130.055 76.9887 129.919 78.6302 128.653 79.6333C127.523 80.545 125.759 80.6364 124.719 80.6364L121.328 80.636V71.5168Z" fill="#F6DA0A"/>
<path fill-rule="evenodd" clip-rule="evenodd" d="M163.199 84.283C163.199 86.0166 162.611 87.7038 161.707 88.8436C160.847 89.892 159.446 90.8951 157.094 90.8494C154.652 90.8041 153.07 89.7097 151.985 87.8858C150.809 85.8796 150.628 83.235 150.628 80.9555C150.628 78.6298 150.809 76.0767 151.985 74.0708C153.07 72.2458 154.653 71.1072 157.094 71.1072C159.4 71.1072 160.847 72.156 161.616 73.1134C162.52 74.2523 163.108 75.9857 163.153 77.6729H172.378C172.151 72.5648 169.574 69.4204 167.992 68.0069C166.273 66.4568 162.837 64.2222 157.004 64.2222C152.573 64.2209 148.639 65.4989 145.519 68.8733C141.992 72.7023 141.314 77.4448 141.314 81.0925C141.314 84.7394 141.992 89.4816 145.519 93.3116C148.639 96.7301 152.573 97.9697 157.004 97.9697C160.124 97.9689 164.42 97.3774 167.946 94.2237C170.071 92.3077 172.332 89.1169 172.514 84.2842L163.199 84.283Z" fill="#F6DA0A"/>
<path fill-rule="evenodd" clip-rule="evenodd" d="M176.582 65.1331V97.049H185.535V83.6453H189.65L196.116 97.049H206.426L196.93 80.1334L206.335 65.1331H196.614L189.65 77.0797H185.535V65.1331H176.582Z" fill="#F6DA0A"/>
<path fill-rule="evenodd" clip-rule="evenodd" d="M75.7491 81.0921C75.7491 87.3387 78.0555 91.2144 80.4067 93.5397C82.4412 95.5455 86.0587 97.9697 92.0275 97.9697C97.9959 97.9689 101.613 95.5459 103.648 93.5397C106 91.2136 108.305 87.3387 108.305 81.0925C108.305 74.8455 106 70.9705 103.648 68.6453C101.613 66.6387 97.9962 64.2222 92.0275 64.2222C86.0587 64.2209 82.4417 66.6391 80.4067 68.6453C78.055 70.9702 75.7491 74.8459 75.7491 81.0921Z" stroke="#2B2A29" stroke-width="0.0761999" stroke-miterlimit="10"/>
<path d="M85.064 80.9546C85.064 77.7637 85.6069 75.5751 86.5564 74.0707C87.1891 73.1132 88.8174 71.1071 92.0275 71.1071C95.2377 71.1071 96.8659 73.1132 97.4986 74.0707C98.4481 75.574 98.9911 77.7637 98.9911 80.9554C98.9911 84.1923 98.4481 86.3812 97.4986 87.8857C96.8656 88.8427 95.238 90.8493 92.0275 90.8493C88.817 90.8489 87.1894 88.8435 86.5564 87.8857C85.6069 86.38 85.064 84.1926 85.064 80.9554" stroke="#2B2A29" stroke-width="0.0761999" stroke-miterlimit="10"/>
<path d="M85.064 80.9553V80.9546" stroke="#2B2A29" stroke-width="0.0761999" stroke-miterlimit="10"/>
<path d="M112.375 65.1331V97.049H121.328V87.2016H124.448" stroke="#2B2A29" stroke-width="0.0761999" stroke-miterlimit="10"/>
<path d="M124.448 87.2016C127.975 87.2016 131.863 86.974 134.848 84.9678C138.375 82.5957 139.053 79.1772 139.053 76.1682C139.053 73.1581 138.375 69.7393 134.848 67.3685C131.863 65.361 127.975 65.1342 124.448 65.1342" stroke="#2B2A29" stroke-width="0.0761999" stroke-miterlimit="10"/>
<path d="M124.448 65.1342L112.375 65.1331" stroke="#2B2A29" stroke-width="0.0761999" stroke-miterlimit="10"/>
<path d="M121.328 71.5167H124.719" stroke="#2B2A29" stroke-width="0.0761999" stroke-miterlimit="10"/>
<path d="M124.719 71.5167C125.759 71.5167 127.523 71.6084 128.653 72.5206C129.919 73.5233 130.055 75.1651 130.055 76.0765C130.055 76.9886 129.919 78.6302 128.653 79.6333C127.523 80.5449 125.759 80.6364 124.719 80.6364" stroke="#2B2A29" stroke-width="0.0761999" stroke-miterlimit="10"/>
<path d="M124.719 80.6364L121.328 80.6359V71.5167" stroke="#2B2A29" stroke-width="0.0761999" stroke-miterlimit="10"/>
<path d="M163.198 84.2828C163.198 86.0165 162.611 87.7037 161.706 88.8435C160.847 89.8919 159.445 90.895 157.094 90.8493C154.652 90.804 153.07 89.7096 151.985 87.8857C150.809 85.8795 150.628 83.2349 150.628 80.9554C150.628 78.6297 150.809 76.0765 151.985 74.0707C153.07 72.2457 154.653 71.1071 157.094 71.1071C159.4 71.1071 160.847 72.1558 161.616 73.1133C162.52 74.2522 163.108 75.9855 163.153 77.6727" stroke="#2B2A29" stroke-width="0.0761999" stroke-miterlimit="10"/>
<path d="M163.153 77.6727H172.377" stroke="#2B2A29" stroke-width="0.0761999" stroke-miterlimit="10"/>
<path d="M172.378 77.6729C172.151 72.5648 169.574 69.4204 167.992 68.0069C166.273 66.4568 162.837 64.2222 157.004 64.2222C152.573 64.2209 148.639 65.4989 145.519 68.8733C141.992 72.7023 141.314 77.4448 141.314 81.0925C141.314 84.7394 141.992 89.4816 145.519 93.3116C148.639 96.7301 152.573 97.9697 157.004 97.9697C160.124 97.9689 164.42 97.3774 167.946 94.2237C170.071 92.3077 172.332 89.1169 172.514 84.2842" stroke="#2B2A29" stroke-width="0.0761999" stroke-miterlimit="10"/>
<path d="M172.513 84.2841L163.198 84.2828" stroke="#2B2A29" stroke-width="0.0761999" stroke-miterlimit="10"/>
<path fill-rule="evenodd" clip-rule="evenodd" d="M176.582 65.1331V97.049H185.535V83.6453H189.65L196.116 97.049H206.426L196.93 80.1334L206.335 65.1331H196.614L189.65 77.0797H185.535V65.1331H176.582Z" stroke="#2B2A29" stroke-width="0.0761999" stroke-miterlimit="10"/>
<path fill-rule="evenodd" clip-rule="evenodd" d="M75.5361 104.268V116.186H80.1226V111.3H81.6595L83.905 116.186H89.0114L85.5361 109.845L88.8929 104.268H84.0469L81.6595 108.581H80.1226V104.268H75.5361Z" fill="#F6DA0A"/>
<path fill-rule="evenodd" clip-rule="evenodd" d="M90.1933 104.268V110.966C90.1933 112.133 90.1938 113.731 91.0684 114.947C91.3519 115.351 92.3923 116.596 94.6144 116.572C95.7491 116.548 96.695 116.215 97.3334 115.71C97.8529 115.303 98.1604 114.852 98.2788 114.637L98.4676 116.186H102.865V104.268H98.2785V110.584C98.2785 111.204 98.2316 111.8 97.9244 112.349C97.4749 113.135 96.7658 113.278 96.3167 113.254C95.6545 113.23 95.3239 112.873 95.182 112.635C94.8982 112.181 94.8982 111.562 94.8982 110.966V104.268H90.1933Z" fill="#F6DA0A"/>
<path fill-rule="evenodd" clip-rule="evenodd" d="M105.229 104.268V116.186H109.815V111.49H113.078V116.186H117.664V104.268H113.078V108.462H109.815V104.268H105.229Z" fill="#F6DA0A"/>
<path fill-rule="evenodd" clip-rule="evenodd" d="M119.555 110.226C119.555 112.514 120.548 114.065 121.707 115.042C122.817 115.971 124.378 116.667 126.6 116.667C128.822 116.667 130.382 115.972 131.494 115.042C132.652 114.065 133.645 112.516 133.645 110.227C133.645 107.939 132.652 106.389 131.494 105.412C130.382 104.482 128.822 103.791 126.6 103.791C124.378 103.791 122.817 104.482 121.707 105.412C120.548 106.389 119.555 107.939 119.555 110.226ZM124.331 110.155C124.331 109.344 124.401 108.606 124.709 107.986C125.205 107.009 126.056 106.818 126.6 106.818C127.144 106.818 127.995 107.009 128.491 107.986C128.798 108.605 128.87 109.345 128.87 110.156C128.87 110.99 128.799 111.753 128.491 112.349C127.995 113.325 127.144 113.517 126.6 113.517C126.056 113.516 125.205 113.326 124.709 112.349C124.401 111.751 124.331 110.99 124.331 110.155Z" fill="#F6DA0A"/>
<path fill-rule="evenodd" clip-rule="evenodd" d="M135.3 104.268V110.608C135.3 112.157 135.3 113.827 136.245 115.09C136.836 115.876 137.924 116.643 139.744 116.62C140.855 116.619 141.706 116.334 142.44 115.71C142.888 115.327 143.172 114.923 143.338 114.589C143.432 115.017 143.669 115.447 143.952 115.71C144.259 115.995 144.709 116.186 145.229 116.186V120.957H149.768V114.756C148.94 114.828 148.255 114.446 147.948 114.018C147.617 113.516 147.64 112.825 147.64 112.325L147.64 104.268H143.007V110.799C143.007 111.347 143.031 111.824 142.794 112.325C142.534 112.872 142.109 113.159 141.47 113.159C140.666 113.158 140.312 112.706 140.146 112.301C140.028 111.99 139.981 111.586 139.981 110.8V104.268H135.3Z" fill="#F6DA0A"/>
<path fill-rule="evenodd" clip-rule="evenodd" d="M159.649 112.133C159.626 112.419 159.531 112.778 159.224 113.183C158.775 113.755 158.184 113.994 157.38 113.994C156.647 113.993 155.82 113.803 155.323 112.825C155.063 112.3 154.945 111.538 154.969 110.942H164.33V110.704C164.33 108.106 163.385 106.509 162.463 105.602C160.855 104.005 158.657 103.791 157.404 103.791C155.985 103.791 154.094 104.005 152.51 105.388C150.784 106.913 150.477 108.844 150.477 110.227C150.477 112.657 151.47 114.16 152.51 115.066C153.384 115.828 154.898 116.667 157.404 116.667C158.207 116.667 160.808 116.596 162.581 114.995C163.29 114.375 163.976 113.398 164.236 112.134L159.649 112.133ZM157.403 106.341C157.995 106.341 158.657 106.437 159.224 107.033C159.46 107.271 159.815 107.772 159.862 108.559L154.968 108.557C155.016 107.772 155.37 107.271 155.607 107.033C156.174 106.412 156.836 106.341 157.404 106.341L157.403 106.341Z" fill="#F6DA0A"/>
<path fill-rule="evenodd" clip-rule="evenodd" d="M166.222 104.268V116.186H170.807V111.49H174.07V116.186H178.656V104.268H174.07V108.462H170.807V104.268H166.222Z" fill="#F6DA0A"/>
<path fill-rule="evenodd" clip-rule="evenodd" d="M180.075 104.268V107.319H182.746V116.186H187.333V107.319H190.004V104.268H180.075Z" fill="#F6DA0A"/>
<path fill-rule="evenodd" clip-rule="evenodd" d="M195.89 110.155C195.89 109.535 195.962 108.725 196.34 108.106C196.694 107.509 197.285 107.105 198.207 107.105C198.988 107.104 199.626 107.414 200.075 108.106C200.5 108.772 200.548 109.56 200.548 110.156C200.548 110.775 200.501 111.562 200.075 112.229C199.626 112.92 198.988 113.231 198.207 113.231C197.285 113.23 196.694 112.825 196.34 112.229C195.962 111.61 195.891 110.8 195.891 110.156L195.89 110.155ZM191.422 104.268V120.957H196.009V114.637C196.765 115.876 198.066 116.524 199.697 116.524C201.682 116.524 203.007 115.615 203.739 114.804C204.59 113.874 205.323 112.325 205.323 110.227C205.323 108.13 204.59 106.58 203.739 105.65C202.817 104.624 201.423 103.934 199.697 103.934C198.491 103.934 196.884 104.315 196.009 105.77L195.843 104.268H191.422Z" fill="#F6DA0A"/>
<path fill-rule="evenodd" clip-rule="evenodd" d="M75.5361 104.268V116.186H80.1226V111.3H81.6595L83.905 116.186H89.0114L85.5361 109.845L88.8929 104.268H84.0469L81.6595 108.581H80.1226V104.268H75.5361Z" stroke="#2B2A29" stroke-width="0.0761999" stroke-miterlimit="10"/>
<path d="M90.1933 104.268V110.966" stroke="#2B2A29" stroke-width="0.0761999" stroke-miterlimit="10"/>
<path d="M90.1933 110.966C90.1933 112.133 90.1938 113.731 91.0684 114.947C91.3519 115.351 92.3923 116.596 94.6144 116.572C95.7492 116.548 96.6951 116.215 97.3334 115.71C97.8529 115.303 98.1604 114.852 98.2788 114.637" stroke="#2B2A29" stroke-width="0.0761999" stroke-miterlimit="10"/>
<path d="M98.2788 114.637L98.4676 116.186H102.865V104.268H98.2785V110.584" stroke="#2B2A29" stroke-width="0.0761999" stroke-miterlimit="10"/>
<path d="M98.2784 110.584C98.2784 111.204 98.2316 111.8 97.9244 112.349C97.4748 113.135 96.7658 113.278 96.3167 113.254C95.6545 113.23 95.3238 112.873 95.182 112.635C94.8982 112.181 94.8982 111.562 94.8982 110.966" stroke="#2B2A29" stroke-width="0.0761999" stroke-miterlimit="10"/>
<path d="M94.8982 110.966V104.268H90.1933" stroke="#2B2A29" stroke-width="0.0761999" stroke-miterlimit="10"/>
<path fill-rule="evenodd" clip-rule="evenodd" d="M105.229 104.268V116.186H109.815V111.49H113.078V116.186H117.664V104.268H113.078V108.462H109.815V104.268H105.229Z" stroke="#2B2A29" stroke-width="0.0761999" stroke-miterlimit="10"/>
<path fill-rule="evenodd" clip-rule="evenodd" d="M119.555 110.226C119.555 112.514 120.548 114.065 121.707 115.042C122.817 115.971 124.378 116.667 126.6 116.667C128.822 116.667 130.382 115.972 131.494 115.042C132.652 114.065 133.645 112.516 133.645 110.227C133.645 107.939 132.652 106.389 131.494 105.412C130.382 104.482 128.822 103.791 126.6 103.791C124.378 103.791 122.817 104.482 121.707 105.412C120.548 106.389 119.555 107.939 119.555 110.226V110.226Z" stroke="#2B2A29" stroke-width="0.0761999" stroke-miterlimit="10"/>
<path fill-rule="evenodd" clip-rule="evenodd" d="M124.331 110.155C124.331 109.344 124.401 108.606 124.709 107.986C125.205 107.009 126.056 106.818 126.6 106.818C127.144 106.818 127.995 107.009 128.491 107.986C128.798 108.605 128.87 109.345 128.87 110.156C128.87 110.99 128.799 111.752 128.491 112.349C127.995 113.325 127.144 113.517 126.6 113.517C126.056 113.516 125.205 113.326 124.709 112.349C124.401 111.751 124.331 110.99 124.331 110.155V110.155Z" stroke="#2B2A29" stroke-width="0.0761999" stroke-miterlimit="10"/>
<path d="M135.3 104.268V110.608" stroke="#2B2A29" stroke-width="0.0761999" stroke-miterlimit="10"/>
<path d="M135.3 110.608C135.3 112.157 135.3 113.827 136.245 115.09C136.836 115.876 137.924 116.643 139.744 116.62C140.855 116.619 141.706 116.334 142.44 115.71C142.888 115.327 143.172 114.923 143.338 114.59C143.432 115.017 143.669 115.448 143.952 115.71C144.259 115.995 144.709 116.187 145.229 116.187" stroke="#2B2A29" stroke-width="0.0761999" stroke-miterlimit="10"/>
<path d="M145.229 116.186V120.957H149.768V114.756" stroke="#2B2A29" stroke-width="0.0761999" stroke-miterlimit="10"/>
<path d="M149.768 114.756C148.94 114.828 148.255 114.446 147.947 114.018C147.616 113.516 147.64 112.825 147.64 112.325" stroke="#2B2A29" stroke-width="0.0761999" stroke-miterlimit="10"/>
<path d="M147.64 112.325L147.64 104.268H143.007V110.799" stroke="#2B2A29" stroke-width="0.0761999" stroke-miterlimit="10"/>
<path d="M143.007 110.799C143.007 111.347 143.031 111.824 142.794 112.325C142.534 112.872 142.109 113.159 141.47 113.159C140.666 113.158 140.312 112.706 140.146 112.301C140.028 111.99 139.981 111.586 139.981 110.8" stroke="#2B2A29" stroke-width="0.0761999" stroke-miterlimit="10"/>
<path d="M139.981 110.8V104.268H135.3" stroke="#2B2A29" stroke-width="0.0761999" stroke-miterlimit="10"/>
<path d="M159.649 112.133C159.626 112.419 159.531 112.778 159.224 113.183C158.775 113.755 158.184 113.994 157.38 113.994C156.647 113.993 155.82 113.803 155.323 112.825C155.063 112.3 154.945 111.538 154.969 110.942" stroke="#2B2A29" stroke-width="0.0761999" stroke-miterlimit="10"/>
<path d="M154.969 110.942H164.33V110.704" stroke="#2B2A29" stroke-width="0.0761999" stroke-miterlimit="10"/>
<path d="M164.33 110.704C164.33 108.106 163.385 106.509 162.463 105.602C160.855 104.005 158.657 103.791 157.404 103.791C155.985 103.791 154.094 104.005 152.51 105.388C150.784 106.913 150.477 108.844 150.477 110.227C150.477 112.657 151.47 114.16 152.51 115.066C153.384 115.828 154.898 116.667 157.404 116.667C158.207 116.667 160.808 116.596 162.581 114.995C163.29 114.375 163.976 113.398 164.236 112.134" stroke="#2B2A29" stroke-width="0.0761999" stroke-miterlimit="10"/>
<path d="M164.236 112.134L159.649 112.133" stroke="#2B2A29" stroke-width="0.0761999" stroke-miterlimit="10"/>
<path d="M157.403 106.341C157.995 106.341 158.657 106.437 159.224 107.033C159.46 107.271 159.815 107.772 159.862 108.559" stroke="#2B2A29" stroke-width="0.0761999" stroke-miterlimit="10"/>
<path d="M159.862 108.559L154.968 108.557" stroke="#2B2A29" stroke-width="0.0761999" stroke-miterlimit="10"/>
<path d="M154.968 108.557C155.016 107.772 155.37 107.271 155.607 107.033C156.174 106.412 156.836 106.342 157.404 106.342" stroke="#2B2A29" stroke-width="0.0761999" stroke-miterlimit="10"/>
<path d="M157.404 106.341L157.403 106.341" stroke="#2B2A29" stroke-width="0.0761999" stroke-miterlimit="10"/>
<path fill-rule="evenodd" clip-rule="evenodd" d="M166.222 104.268V116.186H170.807V111.49H174.07V116.186H178.656V104.268H174.07V108.462H170.807V104.268H166.222Z" stroke="#2B2A29" stroke-width="0.0761999" stroke-miterlimit="10"/>
<path fill-rule="evenodd" clip-rule="evenodd" d="M180.075 104.268V107.319H182.746V116.186H187.333V107.319H190.004V104.268H180.075Z" stroke="#2B2A29" stroke-width="0.0761999" stroke-miterlimit="10"/>
<path d="M195.89 110.155C195.89 109.535 195.961 108.725 196.34 108.106C196.694 107.509 197.285 107.105 198.207 107.105C198.988 107.104 199.626 107.414 200.075 108.106C200.5 108.772 200.548 109.56 200.548 110.156C200.548 110.775 200.501 111.562 200.075 112.23C199.626 112.92 198.988 113.231 198.207 113.231C197.285 113.23 196.694 112.825 196.34 112.23C195.961 111.61 195.891 110.8 195.891 110.156" stroke="#2B2A29" stroke-width="0.0761999" stroke-miterlimit="10"/>
<path d="M195.891 110.155L195.89 110.155" stroke="#2B2A29" stroke-width="0.0761999" stroke-miterlimit="10"/>
<path d="M191.422 104.268V120.957H196.009V114.637" stroke="#2B2A29" stroke-width="0.0761999" stroke-miterlimit="10"/>
<path d="M196.009 114.637C196.765 115.876 198.066 116.524 199.697 116.524C201.682 116.524 203.007 115.615 203.739 114.804C204.59 113.874 205.323 112.325 205.323 110.227C205.323 108.13 204.59 106.58 203.739 105.65C202.817 104.624 201.423 103.934 199.697 103.934C198.491 103.934 196.884 104.315 196.009 105.77" stroke="#2B2A29" stroke-width="0.0761999" stroke-miterlimit="10"/>
<path d="M196.009 105.77L195.843 104.268H191.422" stroke="#2B2A29" stroke-width="0.0761999" stroke-miterlimit="10"/>
</svg>
