<svg width="20" height="22" viewBox="0 0 20 22" fill="none" xmlns="http://www.w3.org/2000/svg">
<path fill-rule="evenodd" clip-rule="evenodd" d="M7.45843 8.16124L0 10.6357C0.0517737 11.2693 1.06062 11.3231 1.70411 11.5057C2.29253 11.672 3.33873 12.0162 3.78632 12.1149C5.2274 12.4316 6.5088 13.0226 7.92687 13.3576L7.8753 15.0926L8.29264 21.0258V21.7676C9.17514 21.5293 12.3315 15.0893 12.9267 15.0893L13.1706 15.089C14.7683 15.089 18.3767 17.0316 20 17.0684C19.723 16.0164 15.4878 11.3636 15.4878 10.8836C15.4878 10.376 19.2431 5.37548 19.5121 4.20449L19.1461 4.20422C18.055 4.20422 13.1538 6.55463 12.3172 6.55463C11.6747 6.55463 8.0724 0.822082 7.23698 0.619751L7.45843 8.16124Z" fill="#E31E24"/>
</svg>
